<svg xmlns="http://www.w3.org/2000/svg" viewBox="0 0 274.63 87.09"><defs><style>.cls-1,.cls-4{fill:#fff;}.cls-1{stroke:#2d3c5c;stroke-miterlimit:10;stroke-width:6px;}.cls-2{font-size:36px;font-family:Ubuntu-Bold, Ubuntu;font-weight:700;}.cls-2,.cls-3{fill:#2d3c5c;}</style></defs><g id="Capa_2" data-name="Capa 2"><g id="diseño"><rect class="cls-1" x="3" y="21.37" width="249.36" height="61.18" rx="12.79"/><text class="cls-2" transform="translate(38.21 63.35)">$1.000.000</text><circle class="cls-3" cx="251.4" cy="23.24" r="23.24"/><path class="cls-4" d="M266.71,22.75c-.28-.3-6.93-7.25-15.31-7.25s-15,7-15.31,7.25a.71.71,0,0,0,0,1C236.36,24,243,31,251.4,31s15-6.94,15.31-7.24A.71.71,0,0,0,266.71,22.75ZM251.4,29.51a6.28,6.28,0,1,1,6.27-6.28A6.29,6.29,0,0,1,251.4,29.51Zm-5.71-11.44a7.67,7.67,0,0,0,0,10.34,26.26,26.26,0,0,1-8.07-5.17A26.18,26.18,0,0,1,245.69,18.07Zm11.4,10.35a7.7,7.7,0,0,0,0-10.35,26.29,26.29,0,0,1,8.05,5.17A26.16,26.16,0,0,1,257.09,28.42Z"/><circle class="cls-4" cx="251.4" cy="23.24" r="2.91"/></g></g></svg>