<svg xmlns="http://www.w3.org/2000/svg" viewBox="0 0 201.56 78.91"><defs><style>.cls-1,.cls-4{fill:#fff;}.cls-1{stroke:#554c80;stroke-miterlimit:10;stroke-width:4.97px;}.cls-2{font-size:36px;font-family:Ubuntu-Bold, Ubuntu;font-weight:700;}.cls-2,.cls-3{fill:#544c80;}</style></defs><g id="Capa_2" data-name="Capa 2"><g id="diseño"><path class="cls-1" d="M167,23.24H23.8a10.59,10.59,0,0,0-10.6,10.6V45.19L4.92,50l8.28,4.87V65.82a10.59,10.59,0,0,0,10.6,10.6H167a10.6,10.6,0,0,0,10.6-10.6v-32A10.6,10.6,0,0,0,167,23.24Z"/><text class="cls-2" transform="translate(30.65 62.81)">$10.000</text><circle class="cls-3" cx="178.32" cy="23.24" r="23.24"/><path class="cls-4" d="M193.63,22.75c-.28-.3-6.93-7.25-15.31-7.25s-15,7-15.31,7.25a.71.71,0,0,0,0,1c.28.3,6.93,7.24,15.31,7.24s15-6.94,15.31-7.24A.71.71,0,0,0,193.63,22.75Zm-15.31,6.76a6.28,6.28,0,1,1,6.27-6.28A6.29,6.29,0,0,1,178.32,29.51Zm-5.71-11.44a7.7,7.7,0,0,0,0,10.34,26.26,26.26,0,0,1-8.07-5.17A26.18,26.18,0,0,1,172.61,18.07ZM184,28.42a7.7,7.7,0,0,0,0-10.35,26.37,26.37,0,0,1,8.06,5.17A26.37,26.37,0,0,1,184,28.42Z"/><circle class="cls-4" cx="178.32" cy="23.24" r="2.91"/></g></g></svg>