<svg xmlns="http://www.w3.org/2000/svg" viewBox="0 0 218.52 91.22"><defs><style>.cls-1,.cls-4{fill:#fff;}.cls-1{stroke:#ed7178;stroke-miterlimit:10;stroke-width:6px;}.cls-2{font-size:36px;font-family:Ubuntu-Bold, Ubuntu;font-weight:700;}.cls-2,.cls-3{fill:#ed7178;}</style></defs><g id="Capa_2" data-name="Capa 2"><g id="diseño"><path class="cls-1" d="M182.49,22.25H28.71A12.79,12.79,0,0,0,15.92,35v13.7l-10,5.82,10,5.87V73.64A12.79,12.79,0,0,0,28.71,86.43H182.49a12.79,12.79,0,0,0,12.79-12.79V35A12.79,12.79,0,0,0,182.49,22.25Z"/><text class="cls-2" transform="translate(36.35 67.48)">$10.000</text><circle class="cls-3" cx="195.28" cy="23.24" r="23.24"/><path class="cls-4" d="M210.59,22.75c-.28-.3-6.93-7.25-15.31-7.25s-15,7-15.31,7.25a.71.71,0,0,0,0,1c.28.3,6.93,7.24,15.31,7.24s15-6.94,15.31-7.24A.71.71,0,0,0,210.59,22.75Zm-15.31,6.76a6.28,6.28,0,1,1,6.28-6.28A6.28,6.28,0,0,1,195.28,29.51Zm-5.71-11.44a7.68,7.68,0,0,0,0,10.34,26.21,26.21,0,0,1-8.08-5.17A26.18,26.18,0,0,1,189.57,18.07ZM201,28.42a7.7,7.7,0,0,0,0-10.35,26.37,26.37,0,0,1,8.06,5.17A26.37,26.37,0,0,1,201,28.42Z"/><circle class="cls-4" cx="195.28" cy="23.24" r="2.91"/></g></g></svg>