<svg xmlns="http://www.w3.org/2000/svg" viewBox="0 0 507.78 317.71"><defs><style>.cls-1{fill:#80bf66;stroke:#fff;stroke-miterlimit:10;stroke-width:6px;}.cls-2{font-size:36px;font-family:Ubuntu-Bold, Ubuntu;font-weight:700;}.cls-2,.cls-5{fill:#fff;}.cls-3{letter-spacing:-0.01em;}.cls-4{letter-spacing:-0.02em;}</style></defs><g id="Capa_2" data-name="Capa 2"><g id="diseño"><path class="cls-1" d="M474.07,179.85H33.7A30.71,30.71,0,0,0,3,210.55V284a30.71,30.71,0,0,0,30.7,30.71H474.07A30.71,30.71,0,0,0,504.78,284V210.55A30.71,30.71,0,0,0,474.07,179.85Z"/><text class="cls-2" transform="translate(66.78 241.78)">Du<tspan class="cls-3" x="47.74" y="0">r</tspan><tspan x="62.57" y="0">an</tspan><tspan class="cls-4" x="103.68" y="0">t</tspan><tspan x="118.94" y="0">e 36 años hubo </tspan><tspan x="81.38" y="43.2">t</tspan><tspan class="cls-3" x="97.36" y="43.2">r</tspan><tspan x="112.19" y="43.2">anquilidad</tspan></text><circle class="cls-1" cx="253.39" cy="75.95" r="72.95"/><path class="cls-5" d="M296.21,49.35C294.89,42.49,287.65,40,282.67,39a10.89,10.89,0,0,1,.38,3.1,13.58,13.58,0,0,1-1.5,6.1c2.82.66,5.35,1.79,5.54,2.92a1.38,1.38,0,0,1-.28,1.31c-1.6,2-6.95,3.29-10.9,3.29H263.5c-3.94,0-9.3-1.31-10.9-3.29a1.24,1.24,0,0,1-.28-1.31c.19-1.22,2.73-2.26,5.55-2.92a13,13,0,0,1-1.51-6.1,11.7,11.7,0,0,1,.38-3.1c-5,.94-12.22,3.47-13.53,10.33a10.52,10.52,0,0,0,2.25,8.93c3.2,3.85,8.55,5.45,12.69,6.11-1.22,3.38-3.57,10.34-5.36,16.35-4.89-.09-13.44-.28-16.63-.19a6.78,6.78,0,0,0-4.8,2.07c-2.91,3-4.41,10.9-4.41,23.49l-8.37,4.33a5.39,5.39,0,0,0,2.54,10.14,4.52,4.52,0,0,0,2.44-.65L261.81,100c4.89-2.16,7.61-5.07,8.74-8,2.16-5.17,7.24-21.34,9.12-27.44,4.13-.47,10.52-2,14.19-6.3A10.6,10.6,0,0,0,296.21,49.35Zm-58.27,51.12a58.82,58.82,0,0,1,1-9.21c4.88.1,13.15.19,16.07.29Z"/><circle class="cls-5" cx="269.71" cy="42.12" r="10.81"/></g></g></svg>