<svg xmlns="http://www.w3.org/2000/svg" viewBox="0 0 245.52 91.96"><defs><style>.cls-1,.cls-4{fill:#fff;}.cls-1{stroke:#c14632;stroke-miterlimit:10;stroke-width:6px;}.cls-2{font-size:36px;font-family:Ubuntu-Bold, Ubuntu;font-weight:700;}.cls-2,.cls-3{fill:#c14632;}</style></defs><g id="Capa_2" data-name="Capa 2"><g id="diseño"><path class="cls-1" d="M209.49,23.24H28.71A12.79,12.79,0,0,0,15.92,36V49.72l-10,5.82,10,5.87V74.62A12.79,12.79,0,0,0,28.71,87.41H209.49a12.79,12.79,0,0,0,12.79-12.79V36A12.79,12.79,0,0,0,209.49,23.24Z"/><text class="cls-2" transform="translate(42.19 68.22)">$500.000</text><circle class="cls-3" cx="222.28" cy="23.24" r="23.24"/><path class="cls-4" d="M237.59,22.75c-.28-.3-6.93-7.25-15.31-7.25s-15,7-15.31,7.25a.71.71,0,0,0,0,1c.28.3,6.93,7.24,15.31,7.24s15-6.94,15.31-7.24A.71.71,0,0,0,237.59,22.75Zm-15.31,6.76a6.28,6.28,0,1,1,6.28-6.28A6.28,6.28,0,0,1,222.28,29.51Zm-5.71-11.44a7.68,7.68,0,0,0,0,10.34,26.21,26.21,0,0,1-8.08-5.17A26.18,26.18,0,0,1,216.57,18.07ZM228,28.42a7.7,7.7,0,0,0,0-10.35,26.37,26.37,0,0,1,8.06,5.17A26.37,26.37,0,0,1,228,28.42Z"/><circle class="cls-4" cx="222.28" cy="23.24" r="2.91"/></g></g></svg>