<svg width="1940" height="1186.41" xmlns="http://www.w3.org/2000/svg">
 <defs>
  <linearGradient y2="0.9505" x2="0.5" y1="0.05885" x1="0.5" id="Degradado_sin_nombre_44">
   <stop stop-color="#14a3ff" offset="0"/>
   <stop stop-color="#b2e9ff" offset="1"/>
  </linearGradient>
  <linearGradient y2="0.95552" x2="0.50001" y1="-0.00516" x1="0.50001" id="Degradado_sin_nombre_76">
   <stop stop-color="#bde859" offset="0"/>
   <stop stop-color="#b8e557" offset="0.14"/>
   <stop stop-color="#abde4f" offset="0.29"/>
   <stop stop-color="#94d144" offset="0.46"/>
   <stop stop-color="#75bf33" offset="0.63"/>
   <stop stop-color="#4ca81e" offset="0.8"/>
   <stop stop-color="#1b8c04" offset="0.98"/>
   <stop stop-color="#148800" offset="1"/>
  </linearGradient>
 </defs>
 <g>
  <title>Layer 1</title>
  <g stroke="null" data-name="Capa 2" id="Capa_2">
   <g stroke="null" id="diseño">
    <rect stroke="null" y="0" id="svg_1" fill="url(#Degradado_sin_nombre_44)" height="925.67" width="1939.93319" x="0.02576" class="cls-1"/>
    <circle stroke="null" id="svg_2" fill="#00b03d" r="39.95999" cy="904.3" cx="1405.84078" class="cls-2"/>
    <circle stroke="null" id="svg_3" fill="#00b03d" r="39.95999" cy="864.34" cx="1365.47602" class="cls-2"/>
    <circle stroke="null" id="svg_4" fill="#00b03d" r="39.95999" cy="904.3" cx="1373.18524" class="cls-2"/>
    <circle stroke="null" id="svg_5" fill="#00b03d" r="39.95999" cy="897.1" cx="1343.89427" class="cls-2"/>
    <path stroke="null" id="svg_6" fill="#9c8280" d="m1940.57528,723.49c-71.89877,3.39 -196.8527,186.35 -217.39376,193.13s216.77743,-14.12 216.77743,-14.12l0.61633,-179.01z" class="cls-3"/>
    <path stroke="null" id="svg_7" fill="#927a71" d="m-2.49009,760.11c226.11336,-146.32 411.37698,-4.3 502.69529,43s184.11178,117.63 184.11178,117.63l-684.29122,-18.24l-2.51585,-142.39z" class="cls-4"/>
    <circle stroke="null" id="svg_8" fill="#00b03d" r="39.95999" cy="889.77" cx="397.38874" class="cls-2"/>
    <circle stroke="null" id="svg_9" fill="#00b03d" r="39.95999" cy="851.5" cx="380.99024" class="cls-2"/>
    <circle stroke="null" id="svg_10" fill="#00b03d" r="39.95999" cy="886.56" cx="348.57719" class="cls-2"/>
    <circle stroke="null" id="svg_11" fill="#00b03d" r="39.95999" cy="911.51" cx="1802.75919" class="cls-2"/>
    <circle stroke="null" id="svg_12" fill="#00b03d" r="39.95999" cy="871.55" cx="1762.38433" class="cls-2"/>
    <circle stroke="null" id="svg_13" fill="#00b03d" r="39.95999" cy="911.51" cx="1770.09355" class="cls-2"/>
    <circle stroke="null" id="svg_14" fill="#00b03d" r="39.95999" cy="904.3" cx="1740.81268" class="cls-2"/>
    <circle stroke="null" id="svg_15" fill="#00b03d" r="39.95999" cy="864.34" cx="1794.44375" class="cls-2"/>
    <path stroke="#7f5345" id="svg_16" stroke-width="20px" stroke-miterlimit="10" fill="none" d="m0.02576,1137.35a39.46552,39.06 0 1 0 78.93103,0a14.8122,14.66 0 0 0 29.6244,0a20.33899,20.13 0 1 0 40.66787,0a39.46552,39.06 0 1 0 78.93103,0a14.8122,14.66 0 0 0 29.6244,0a20.33899,20.13 0 1 0 40.66787,0a39.47562,39.07 0 0 0 78.94114,0a14.8122,14.66 0 1 0 29.6244,0a20.33899,20.13 0 1 0 40.66787,0a39.46552,39.06 0 0 0 78.93103,0a14.8122,14.66 0 0 0 29.6244,0a20.33899,20.13 0 1 0 40.66787,0a39.46552,39.06 0 1 0 78.93103,0a14.8122,14.66 0 0 0 29.6244,0a20.33899,20.13 0 1 0 40.66787,0a39.46552,39.06 0 0 0 78.93103,0a14.8122,14.66 0 0 0 29.6244,0a20.33899,20.13 0 1 0 40.66787,0a39.46552,39.06 0 1 0 78.93103,0a14.8223,14.67 0 0 0 29.6345,0a20.33899,20.13 0 1 0 40.66787,0a39.46552,39.06 0 0 0 78.93103,0a14.8122,14.66 0 0 0 29.6244,0a20.33899,20.13 0 1 0 40.66787,0a39.46552,39.06 0 0 0 78.93103,0a14.8122,14.66 0 0 0 29.6244,0a20.33899,20.13 0 1 0 40.66787,0a39.46552,39.06 0 1 0 78.93103,0a14.8122,14.66 0 0 0 29.6244,0a20.33899,20.13 0 1 0 40.66787,0a39.46552,39.06 0 1 0 78.93103,0a14.8223,14.67 0 0 0 29.6345,0a20.33899,20.13 0 1 0 40.66787,0a39.46552,39.06 0 1 0 78.93103,0a14.8122,14.66 0 1 0 29.6244,0a20.33899,20.13 0 1 0 40.66787,0a39.46552,39.06 0 0 0 78.93103,0a14.8122,14.66 0 0 0 29.6244,0a20.33899,20.13 0 1 0 40.66787,0" class="cls-5"/>
    <rect stroke="null" id="svg_17" fill="#bde859" height="217.2" width="1939.93319" y="902.5" x="0.02576" class="cls-6"/>
    <path stroke="null" id="svg_18" fill="url(#Degradado_sin_nombre_76)" d="m1940.96933,899.5l-1939.93319,0a3.03115,3 0 0 0 -3.03115,3l0,229.85a42.49666,42.06 0 0 0 83.3464,11.65a17.83324,17.65 0 0 0 27.76529,-1.11a23.36003,23.12 0 0 0 40.17278,2.43a42.49666,42.06 0 0 0 81.28522,-1.32a17.83324,17.65 0 0 0 27.76529,-1.11a23.36003,23.12 0 0 0 40.17278,2.43a42.49666,42.06 0 0 0 81.28522,-1.32a17.83324,17.65 0 0 0 27.76529,-1.11a23.36003,23.12 0 0 0 40.17278,2.43a42.50677,42.07 0 0 0 81.29533,-1.32a17.83324,17.65 0 0 0 27.76529,-1.11a23.34992,23.11 0 0 0 40.16268,2.43a42.50677,42.07 0 0 0 81.29533,-1.32a17.83324,17.65 0 0 0 27.76529,-1.11a23.36003,23.12 0 0 0 40.17278,2.43a42.49666,42.06 0 0 0 81.33574,-1.32a17.83324,17.65 0 0 0 27.76529,-1.11a23.36003,23.12 0 0 0 40.17278,2.43a42.49666,42.06 0 0 0 81.28522,-1.32a17.83324,17.65 0 0 0 27.76529,-1.11a23.36003,23.12 0 0 0 40.17278,2.43a42.49666,42.06 0 0 0 81.28522,-1.32a17.84334,17.66 0 0 0 27.7754,-1.11a23.34992,23.11 0 0 0 40.16268,2.43a42.50677,42.07 0 0 0 81.21449,-1.32a17.83324,17.65 0 0 0 27.76529,-1.11a23.36003,23.12 0 0 0 40.17278,2.43a42.49666,42.06 0 0 0 81.28522,-1.32a17.83324,17.65 0 0 0 27.76529,-1.11a23.36003,23.12 0 0 0 40.17278,2.43a42.49666,42.06 0 0 0 81.28522,-1.32a17.83324,17.65 0 0 0 27.76529,-1.11a23.36003,23.12 0 0 0 40.17278,2.43a42.49666,42.06 0 0 0 81.28522,-1.32a17.83324,17.65 0 0 0 27.76529,-1.11a23.36003,23.12 0 0 0 40.17278,2.43a42.50677,42.07 0 0 0 81.29533,-1.32a17.83324,17.65 0 0 0 27.76529,-1.11a23.36003,23.12 0 0 0 44.1739,-10.51l0,-229.88a3.03115,3 0 0 0 -3.00083,-3z" class="cls-7"/>
    <circle stroke="null" id="svg_19" fill="#fff" r="31.91998" cy="535.19" cx="1697.78052" class="cls-8"/>
    <circle stroke="null" id="svg_20" fill="#fff" r="31.92003" cy="523.97" cx="1627.97323" class="cls-8"/>
    <circle stroke="null" id="svg_21" fill="#fff" r="31.92003" cy="520.39" cx="1665.52913" class="cls-8"/>
    <circle stroke="null" id="svg_22" fill="#fff" r="31.92001" cy="554.59" cx="1589.84142" class="cls-8"/>
    <circle stroke="null" id="svg_23" fill="#fff" r="31.92001" cy="554.59" cx="1741.22694" class="cls-8"/>
    <rect stroke="null" id="svg_24" fill="#fff" height="41.49" width="151.38552" y="545.01" x="1589.84142" class="cls-8"/>
    <circle stroke="null" id="svg_25" fill="#fff" r="31.92" cy="389.27" cx="445.77593" class="cls-8"/>
    <circle stroke="null" id="svg_26" fill="#fff" r="31.92" cy="365.25" cx="367.84518" class="cls-8"/>
    <circle stroke="null" id="svg_27" fill="#fff" r="31.92" cy="365.25" cx="421.79957" class="cls-8"/>
    <circle stroke="null" id="svg_28" fill="#fff" r="31.92" cy="389.4" cx="329.71336" class="cls-8"/>
    <rect stroke="null" id="svg_29" fill="#fff" height="41.49" width="116.06257" y="379.82" x="329.71336" class="cls-8"/>
   </g>
  </g>
 </g>
</svg>