<svg xmlns="http://www.w3.org/2000/svg" viewBox="0 0 587.35 164.87"><defs><style>.cls-1,.cls-2{fill:#fff;}.cls-2{font-size:18px;font-family:Ubuntu-Regular, Ubuntu;}.cls-3,.cls-4,.cls-5,.cls-6{font-family:Ubuntu-Bold, Ubuntu;font-weight:700;}.cls-4{letter-spacing:-0.03em;}.cls-5{letter-spacing:-0.01em;}.cls-6{letter-spacing:-0.01em;}</style></defs><g id="Capa_2" data-name="Capa 2"><g id="diseño"><circle cx="289.97" cy="54.42" r="54.42" transform="translate(190.41 332.15) rotate(-80.91)"/><path class="cls-1" d="M292.62,23.75a1.89,1.89,0,0,0-2.27,0L260.7,41.38h61.58L292.62,23.75Z"/><path class="cls-1" d="M260.17,40.39l30-17.86a2.14,2.14,0,0,1,2.56,0l30,17.85H323a1.88,1.88,0,0,0,0-2.54l-30.32-18a2,2,0,0,0-2.42,0L260,37.85a1.86,1.86,0,0,0,0,2.54Z"/><path class="cls-1" d="M320.5,43c0-.27-.1-.37-.36-.37H262.8c-.27,0-.45.1-.45.37v1.44c0,.27.18.56.45.56h57.34c.26,0,.36-.29.36-.56Z"/><path class="cls-1" d="M320.5,70.42c0-.28-.1-.48-.36-.48H262.8a.44.44,0,0,0-.45.48v1.43c0,.28.18.36.45.36h57.34c.26,0,.36-.08.36-.36Z"/><path class="cls-1" d="M322.67,74a.46.46,0,0,0-.46-.49H260.73a.46.46,0,0,0-.47.49v1.44a.5.5,0,0,0,.47.53h61.48a.5.5,0,0,0,.46-.53Z"/><path class="cls-1" d="M325.14,77.64a.53.53,0,0,0-.55-.5H258.34a.52.52,0,0,0-.54.5v1.44c0,.27.24.43.54.43h66.25c.3,0,.55-.16.55-.43Z"/><path class="cls-1" d="M275.7,47.68a.47.47,0,0,1-.48.48h-6.38a.53.53,0,0,1-.53-.48V47c0-.26.26-.38.53-.38h6.38c.28,0,.48.12.48.38Z"/><path class="cls-1" d="M276.91,67.92a.43.43,0,0,1-.49.41H267.8a.43.43,0,0,1-.49-.41l1.1-1.55c.27-.35.39-.41.66-.41h6.08c.27,0,.4-.06.66.41Z"/><path class="cls-1" d="M274.94,64.41c0,.26-.14.51-.42.51h-5a.49.49,0,0,1-.47-.51V49.67c0-.25.19-.38.47-.38h5c.28,0,.42.13.42.38Z"/><path class="cls-1" d="M288.67,47.68a.49.49,0,0,1-.49.48H281.8a.43.43,0,0,1-.42-.48V47c0-.26.14-.38.42-.38h6.38c.27,0,.49.12.49.38Z"/><path class="cls-1" d="M289.83,67.92a.43.43,0,0,1-.49.41h-8.62a.43.43,0,0,1-.49-.41l1.1-1.55c.27-.35.39-.41.66-.41h6.08c.27,0,.4-.06.66.41Z"/><path class="cls-1" d="M288,64.41a.54.54,0,0,1-.53.51h-5a.56.56,0,0,1-.54-.51V49.67c0-.25.27-.38.54-.38h5c.28,0,.53.13.53.38Z"/><path class="cls-1" d="M301.55,47.68a.51.51,0,0,1-.51.48h-6.39a.48.48,0,0,1-.48-.48V47c0-.26.21-.38.48-.38H301c.27,0,.51.12.51.38Z"/><path class="cls-1" d="M302.75,67.92a.43.43,0,0,1-.49.41h-8.62a.43.43,0,0,1-.49-.41l1.1-1.55c.27-.35.39-.41.66-.41H301c.27,0,.4-.06.66.41Z"/><path class="cls-1" d="M300.8,64.41a.49.49,0,0,1-.46.51h-5a.46.46,0,0,1-.42-.51V49.67c0-.25.15-.38.42-.38h5c.27,0,.46.13.46.38Z"/><path class="cls-1" d="M314.62,47.68a.52.52,0,0,1-.53.48h-6.38a.57.57,0,0,1-.57-.48V47c0-.26.3-.38.57-.38h6.38c.28,0,.53.12.53.38Z"/><path class="cls-1" d="M315.67,67.92a.43.43,0,0,1-.49.41h-8.62a.43.43,0,0,1-.49-.41l1.1-1.55c.27-.35.39-.41.66-.41h6.08c.27,0,.4-.06.66.41Z"/><path class="cls-1" d="M313.77,64.41a.5.5,0,0,1-.47.51h-5a.52.52,0,0,1-.5-.51V49.67c0-.25.23-.38.5-.38h5c.27,0,.47.13.47.38Z"/><rect y="123.49" width="587.35" height="41.38" rx="10"/><text class="cls-2" transform="translate(17.78 150.92)">En el año <tspan class="cls-3" x="78.41" y="0">1935 </tspan><tspan x="123.62" y="0">se funda el </tspan><tspan class="cls-3" x="216.77" y="0">Ban</tspan><tspan class="cls-4" x="249.42" y="0">c</tspan><tspan class="cls-3" x="257.97" y="0">o </tspan><tspan class="cls-5" x="273.22" y="0">C</tspan><tspan class="cls-3" x="284.67" y="0">ent</tspan><tspan class="cls-6" x="313.77" y="0">r</tspan><tspan class="cls-3" x="321.19" y="0">al </tspan><tspan x="341.15" y="0">y empiezan los problemas</tspan></text></g></g></svg>