<svg xmlns="http://www.w3.org/2000/svg" viewBox="0 0 283.13 184.5"><defs><style>.cls-1{fill:#908b89;}.cls-2,.cls-5{fill:#299fd6;}.cls-2,.cls-3,.cls-4,.cls-5,.cls-6,.cls-7{stroke:#000;stroke-width:2.66px;}.cls-2,.cls-3,.cls-7{stroke-linecap:round;stroke-linejoin:round;}.cls-3,.cls-6{fill:#dadada;}.cls-4{fill:none;}.cls-4,.cls-5,.cls-6{stroke-miterlimit:10;}</style></defs><g id="Capa_2" data-name="Capa 2"><g id="diseño"><ellipse class="cls-1" cx="141.56" cy="147.74" rx="141.56" ry="36.75"/><polygon class="cls-2" points="214.61 128.54 128.57 155.22 69.58 128.54 69.58 69.55 127.44 93.22 214.61 72.56 214.61 128.54"/><polyline class="cls-3" points="69.58 69.55 127.44 93.22 214.61 72.56 158.63 60.53 69.58 69.55"/><line class="cls-4" x1="128.57" y1="155.22" x2="128.57" y2="91.72"/><polygon class="cls-5" points="37.7 11.43 26.2 22.93 59.72 81 70.7 72.56 37.7 11.43"/><polyline class="cls-6" points="37.7 11.43 125.85 7.2 155.91 60.53 142.1 62.21 119.13 19.34 44.45 23.43"/><line class="cls-4" x1="119.13" y1="19.34" x2="125.85" y2="7.2"/><polygon points="208.82 123.47 138.73 143.65 138.73 100.16 208.82 83.79 208.82 123.47"/><polygon points="120.32 101.7 75.81 81 75.81 121.14 120.32 141.09 120.32 101.7"/><line class="cls-4" x1="59.72" y1="81.01" x2="70.18" y2="78.17"/><line class="cls-7" x1="166.75" y1="29.24" x2="168.79" y2="2.1"/><line class="cls-7" x1="193.97" y1="35.36" x2="206.22" y2="1.33"/><line class="cls-7" x1="216.43" y1="46.93" x2="238.89" y2="31.36"/></g></g></svg>