<svg xmlns="http://www.w3.org/2000/svg" viewBox="0 0 108.85 108.85"><defs><style>.cls-1{fill:#fff;}</style></defs><g id="Capa_2" data-name="Capa 2"><g id="diseño"><circle cx="54.42" cy="54.42" r="54.42" transform="translate(-7.92 99.57) rotate(-80.91)"/><path class="cls-1" d="M20.12,52.12c.24-1.52.36-3.07.72-4.56q3.8-15.78,18.79-22c.83-.35,1.4-.19,1.64.41s-.06,1.11-.9,1.45a28.46,28.46,0,0,0-15.6,14.74A28.76,28.76,0,1,0,49.34,25.43c-1.25.05-2.48.29-3.73.44l-.52.09c-.72.06-1.16-.23-1.24-.82A1,1,0,0,1,44.79,24a21.08,21.08,0,0,1,2.85-.43,80.27,80.27,0,0,1,14.87.16,29.57,29.57,0,0,1,17.64,9,30.5,30.5,0,0,1,8.39,17,30.88,30.88,0,0,1-14.71,30.9,30.44,30.44,0,0,1-15.64,4.31c-3.33,0-6.67.07-10-.15a28.82,28.82,0,0,1-15.86-6.07,30.25,30.25,0,0,1-11.6-18.42c-.24-1.16-.33-2.34-.5-3.52,0-.19-.08-.38-.12-.57Zm61.53,3.72c1.63,0,3.22,0,4.82,0,.12,0,.32-.23.33-.37a14.35,14.35,0,0,0,0-1.47c0-1.56,0-1.56-1.53-1.56H81.65Zm-.2-5.48h5.18c-.2-1-.39-2-.61-3a.51.51,0,0,0-.38-.33c-1.58,0-3.16,0-4.77,0Zm5.19,7.5c-1.71,0-3.29,0-4.87,0a.48.48,0,0,0-.37.27c-.19,1-.34,2-.52,3.1,1.6,0,3.14,0,4.68,0a.6.6,0,0,0,.46-.31C86.25,59.94,86.42,59,86.64,57.86ZM85.41,45c-.46-1.09-.87-2.12-1.32-3.13a.57.57,0,0,0-.42-.23H79.06L80.31,45Zm0,18.27c-1.7,0-3.26,0-4.82,0a.54.54,0,0,0-.39.24c-.39,1-.75,2-1.14,3.13h4.66a.48.48,0,0,0,.36-.22C84.53,65.4,85,64.37,85.42,63.26ZM82.94,39.61c-.52-.79-1-1.41-1.36-2.08A2.32,2.32,0,0,0,79,36.18a25.44,25.44,0,0,1-3,0c.67,1.11,1.27,2.12,1.9,3.12a.7.7,0,0,0,.47.28C79.8,39.62,81.27,39.61,82.94,39.61Zm0,29.05h-4.7a.47.47,0,0,0-.33.15c-.66,1-1.3,2.11-2,3.25h4.38a.5.5,0,0,0,.34-.16C81.43,70.87,82.15,69.84,83,68.66Zm-4.4-34.48L78.7,34,75,30.87a.31.31,0,0,0-.18-.07H70.93C72.1,32,73.12,33,74.15,34a.55.55,0,0,0,.33.18ZM71,77.4c3.24.44,3.94.24,6.18-1.76.4-.35.78-.73,1.17-1.1a5,5,0,0,0,.36-.46c-1.43,0-2.75,0-4.06,0a.82.82,0,0,0-.52.23C73.09,75.3,72.08,76.31,71,77.4Zm.38-48.63a23.78,23.78,0,0,0-7.91-2.87l4.78,2.8a.78.78,0,0,0,.38.07ZM63.42,82.39a25.74,25.74,0,0,0,8-2.84c-.73-.06-1.44-.06-2.15,0a2.29,2.29,0,0,0-1,.07C66.65,80.46,65.09,81.4,63.42,82.39Z"/><path class="cls-1" d="M76.07,53.23c-.11,7.26-2.19,12.85-6.41,17.62a1.64,1.64,0,0,1-1.07.53,1,1,0,0,1-.72-1.46,4.27,4.27,0,0,1,.51-.63c11.32-13,4.75-33.6-12-37.65A23.14,23.14,0,1,0,47.15,77a22.76,22.76,0,0,0,17.18-4c.27-.18.62-.43.89-.38a1.42,1.42,0,0,1,.91.63.86.86,0,0,1-.4,1.21,48.24,48.24,0,0,1-5.25,2.92A25.15,25.15,0,1,1,75.4,48.55C75.8,50.38,75.94,52.26,76.07,53.23Z"/><path class="cls-1" d="M50.9,63.27H49.83A3.64,3.64,0,0,1,46.31,61a1.82,1.82,0,0,0-1.94-1.22A1.77,1.77,0,0,0,43,62.37a7,7,0,0,0,4.87,4.24c1.06.29,1.21.47,1.21,1.58,0,.56,0,1.12,0,1.68a1.76,1.76,0,0,0,1.74,1.7,1.73,1.73,0,0,0,1.77-1.65c0-.64,0-1.29,0-1.94,0-.85.23-1.1,1-1.34A18.69,18.69,0,0,0,55.49,66c.66-.27,1.19-.17,1.47.33a1,1,0,0,1-.52,1.45c-.57.3-1.37.41-1.68.87s-.07,1.22-.15,1.83a3.8,3.8,0,0,1-3.93,3.15,3.67,3.67,0,0,1-3.53-3.54,1.94,1.94,0,0,0-1.44-2.15,8.15,8.15,0,0,1-4.78-5.55,3.75,3.75,0,0,1,7-2.56,2.28,2.28,0,0,0,2.54,1.48c.51-.06,1,0,1.54,0a1.66,1.66,0,1,0,.07-3.32c-.87,0-1.75,0-2.62,0a9.23,9.23,0,0,1-3-17.88.81.81,0,0,0,.64-1,3.82,3.82,0,0,1,1.71-3.76,3.72,3.72,0,0,1,5.79,2.88,2,2,0,0,0,1.48,2.2,8.36,8.36,0,0,1,4.41,4.49,3.78,3.78,0,1,1-6.81,3.3A1.87,1.87,0,0,0,51.78,47c-.67,0-1.34,0-2,0a1.67,1.67,0,1,0-.05,3.33c.8,0,1.61,0,2.41,0a9.2,9.2,0,0,1,9,7.39,9.05,9.05,0,0,1-.74,5.88c-.33.7-.89.95-1.45.68s-.69-.83-.36-1.56A7.22,7.22,0,0,0,52,52.37c-.76,0-1.52,0-2.29,0A3.69,3.69,0,1,1,49.78,45h2a3.7,3.7,0,0,1,3.66,2.22,1.77,1.77,0,1,0,3.23-1.46,7.08,7.08,0,0,0-4.78-4.09c-1.1-.3-1.24-.46-1.24-1.62,0-.56,0-1.12,0-1.68a1.74,1.74,0,0,0-1.75-1.67,1.77,1.77,0,0,0-1.76,1.75c0,.61,0,1.21,0,1.81,0,.88-.22,1.16-1,1.38a7.09,7.09,0,0,0-5.45,5.66,7.21,7.21,0,0,0,6.69,8.59c.89,0,1.79,0,2.68,0a3.68,3.68,0,0,1,3.75,3.73A3.64,3.64,0,0,1,52,63.27Z"/></g></g></svg>