<svg width="248.26" height="70.18" xmlns="http://www.w3.org/2000/svg">
 <g>
  <title>Layer 1</title>
  <g data-name="Capa 2" id="Capa_2">
   <g id="diseño">
    <path id="svg_1" stroke-width="6px" stroke-miterlimit="10" stroke="#ed7178" fill="#fff" d="m232.47,3l-203.76,0a12.79,12.79 0 0 0 -12.79,12.79l0,13.69l-10,5.82l10,5.88l0,13.21a12.79,12.79 0 0 0 12.79,12.79l203.76,0a12.79,12.79 0 0 0 12.79,-12.79l0,-38.6a12.79,12.79 0 0 0 -12.79,-12.79z" class="cls-1"/>
    <text id="svg_2" x="43.96" y="45.32" font-weight="700" font-family="Ubuntu-Bold, Ubuntu" fill="#ed7178" font-size="30px" class="cls-2">20
     <tspan id="svg_3" letter-spacing="-0.03em" y="0" x="41.28" class="cls-3">c</tspan>
     <tspan id="svg_4" y="0" x="55.53">en</tspan>
     <tspan id="svg_5" letter-spacing="-0.02em" y="0" x="90.72" class="cls-4">t</tspan>
     <tspan id="svg_6" letter-spacing="-0.01em" y="0" x="103.44" class="cls-5">a</tspan>
     <tspan id="svg_7" letter-spacing="-0.01em" y="0" x="119.64" class="cls-6">v</tspan>
     <tspan id="svg_8" y="0" x="135.72">os</tspan></text>
   </g>
  </g>
 </g>
</svg>