<svg width="799.04" height="2182.11" xmlns="http://www.w3.org/2000/svg">

 <g>
  <title>Layer 1</title>
  <g stroke="null" data-name="Capa 2" id="Capa_2">
   <g stroke="null" id="diseño">
    <polygon stroke="null" id="svg_1" opacity="0.8" fill="#ed7278" points="-0.30995603249476744,2148.89990234375 762.804009040774,2148.89990234375 762.9345036692393,1875.2099609375 498.30132208501163,1370.4100341796875 225.1662622935546,1123.1400146484375 38.686397936736284,1097.97998046875 9.918431107756419,12.789999961853027 -0.30995603249476744,15.140000343322754 -0.30995603249476744,2148.89990234375 " class="cls-1"/>
    <line stroke="#ed7278" id="svg_2" stroke-width="6px" stroke-miterlimit="10" fill="none" y2="2145.1" x2="-0.30996" y1="2145.1" x1="751.56181" class="cls-2"/>
    <circle stroke="#ed7178" id="svg_3" fill="#fff" stroke-width="6px" stroke-miterlimit="10" r="12.14001" cy="1874.67" cx="763.74755" class="cls-3"/>
    <line stroke="#ed7178" id="svg_4" fill="#fff" stroke-width="6px" stroke-miterlimit="10" y2="1874.67" x2="-0.30996" y1="1874.67" x1="751.56181" class="cls-3"/>
    <line stroke="null" id="svg_5" y2="1357.23" x2="-0.30996" y1="1376.89" x1="-0.30996"/>
    <circle stroke="#ed7178" id="svg_6" fill="#fff" stroke-width="6px" stroke-miterlimit="10" r="12.14001" cy="1367.39" cx="498.30133" class="cls-3"/>
    <line stroke="#ed7178" id="svg_7" fill="#fff" stroke-width="6px" stroke-miterlimit="10" y2="1367.39" x2="-0.30996" y1="1367.39" x1="486.1156" class="cls-3"/>
    <line stroke="null" id="svg_8" y2="1116.95" x2="-0.30996" y1="1136.61" x1="-0.30996"/>
    <circle stroke="#ed7178" id="svg_9" fill="#fff" stroke-width="6px" stroke-miterlimit="10" r="12.14001" cy="1127.1" cx="235.50506" class="cls-3"/>
    <line stroke="#ed7178" id="svg_10" fill="#fff" stroke-width="6px" stroke-miterlimit="10" y2="1127.1" x2="-0.30996" y1="1127.1" x1="213.27161" class="cls-3"/>
    <line stroke="null" id="svg_11" y2="1084.09" x2="-0.30996" y1="1103.75" x1="-0.30996"/>
    <circle stroke="#ed7178" id="svg_12" fill="#fff" stroke-width="6px" stroke-miterlimit="10" r="12.14001" cy="1094.24" cx="41.29619" class="cls-3"/>
    <line stroke="#ed7178" id="svg_13" fill="#fff" stroke-width="6px" stroke-miterlimit="10" y2="1094.24" x2="-0.30996" y1="1094.24" x1="29.11046" class="cls-3"/>
    <circle stroke="null" id="svg_14" r="37.06006" cy="2145.06" cx="761.84039"/>
    <path stroke="null" id="svg_15" fill="#fff" d="m739.44635,2130.68l0,-0.44a0.532,0.53 0 0 0 0.07026,-0.2a4.01507,4 0 0 1 3.44292,-3.49a0.52196,0.52 0 0 0 0.31117,-0.32a3.9448,3.93 0 0 1 1.59599,-2.65a3.75409,3.74 0 0 1 5.79174,1.53a6.0226,6 0 0 1 0.29109,2.83a0.8532,0.85 0 0 0 0.10038,0.56c0.73275,0.78 1.50565,1.53 2.2384,2.25c5.79174,-3.66 11.50317,-3.58 17.21461,0.11a15.56843,15.51 0 0 1 1.42535,-1.27a1.93727,1.93 0 0 0 0.82309,-2.11a4.30616,4.29 0 0 1 0.79298,-3.26a3.82435,3.81 0 0 1 6.36388,0.52a11.15185,11.11 0 0 1 0.6926,1.76a4.01507,4 0 0 1 2.81055,1.6a3.74405,3.73 0 0 1 -1.58595,5.81a6.46426,6.44 0 0 1 -2.84066,0.27a1.06399,1.06 0 0 0 -0.6926,0.23c-0.92347,0.81 -1.81682,1.67 -2.74028,2.5a0.532,0.53 0 0 0 -0.1606,0.63a27.74412,27.64 0 0 1 0.79298,3.56a13.77169,13.72 0 0 1 -2.45923,9.47c-0.19072,0.27 -0.15057,0.4 0.07026,0.61c1.52573,1.5 3.0113,3 4.5571,4.52a1.00377,1 0 0 0 0.60226,0.23c0.59222,0 1.19448,0 1.78671,0a3.71394,3.7 0 0 1 3.29236,2.53a3.83439,3.82 0 0 1 -1.2246,4.16a3.92473,3.91 0 0 1 -2.32874,1a3.76413,3.75 0 0 1 -1.65622,2.92a11.35261,11.31 0 0 1 -1.84693,0.82l-1.00377,0a9.5659,9.53 0 0 1 -1.69637,-0.75a4.01507,4 0 0 1 -1.56588,-4a2.30866,2.3 0 0 0 -0.8532,-2.29a26.33885,26.24 0 0 1 -2.06776,-2a4.16563,4.15 0 0 1 -2.94104,1.11l-10.06778,0a4.20578,4.19 0 0 1 -2.16814,-0.55c-0.22083,-0.13 -0.43162,-0.28 -0.66249,-0.44c-0.80301,0.86 -1.55584,1.73 -2.38897,2.52a1.93727,1.93 0 0 0 -0.62234,1.76a4.25597,4.24 0 0 1 -1.00377,3.43a4.01507,4 0 0 1 -2.40904,1.21l-0.72271,0a0.30113,0.3 0 0 0 -0.15057,-0.07a4.09537,4.08 0 0 1 -3.44292,-3.66c-1.67629,-0.4 -2.1581,-0.67 -2.94104,-1.65a4.76789,4.75 0 0 1 -0.81305,-1.94l0,-0.87c0,-0.11 0.07026,-0.22 0.10038,-0.33a3.52322,3.51 0 0 1 3.0113,-2.81a21.1293,21.05 0 0 1 2.64995,-0.08a0.68256,0.68 0 0 0 0.46173,-0.13c1.53576,-1.59 3.0113,-3.19 4.60729,-4.81c-0.23087,-0.34 -0.4517,-0.66 -0.65245,-1a14.47432,14.42 0 0 1 -1.25471,-12.66a0.4517,0.45 0 0 0 -0.13049,-0.57c-0.81305,-0.79 -1.59599,-1.61 -2.41908,-2.39a0.94354,0.94 0 0 0 -0.60226,-0.22c-0.54203,0 -1.08407,0.08 -1.61607,0.07a4.06526,4.05 0 0 1 -3.3827,-1.6a4.52699,4.51 0 0 1 -0.78294,-1.96zm23.70898,26.12l0,-1.13a1.32497,1.32 0 1 1 2.61983,0c0,0.37 0,0.74 0,1.13l1.25471,0a1.31493,1.31 0 0 0 1.37516,-1.37a17.45551,17.39 0 0 0 0,-1.91a2.24844,2.24 0 0 1 1.00377,-2.05a11.33253,11.29 0 0 0 3.91469,-11.92a11.78423,11.74 0 0 0 -23.08664,4.68a11.46302,11.42 0 0 0 4.26601,7.35a1.92723,1.92 0 0 1 0.84316,1.75c-0.05019,0.71 0,1.42 0,2.13a1.2246,1.22 0 0 0 1.00377,1.28a11.21208,11.17 0 0 0 1.64618,0l0,-1.2a1.31493,1.31 0 1 1 2.61983,0c0,0.4 0,0.81 0,1.23l2.53953,0.03zm8.66251,-3.9a1.3049,1.3 0 0 0 -0.80301,1.47c0,0.36 0,0.73 0,1.09a1.09411,1.09 0 0 0 0.25094,0.59c1.14429,1.18 2.28859,2.36 3.49311,3.48a2.17817,2.17 0 0 1 0.6926,2.1a9.11421,9.08 0 0 0 -0.0803,1.95a1.13426,1.13 0 0 0 1.20452,1.16a1.39524,1.39 0 0 0 1.24467,-1.43a3.0113,3 0 0 0 -0.20075,-0.84a1.29486,1.29 0 0 1 1.69637,-1.68a3.22209,3.21 0 0 0 1.00377,0.19a1.36512,1.36 0 0 0 1.29486,-1.28a1.09411,1.09 0 0 0 -1.12422,-1.14a7.50818,7.48 0 0 0 -1.77667,0a1.92723,1.92 0 0 1 -1.79674,-0.56c-1.71644,-1.75 -3.41281,-3.42 -5.09914,-5.1zm-19.84448,0.09c-1.5458,1.62 -3.13175,3.23 -4.64744,4.9a2.10791,2.1 0 0 1 -2.08784,0.72a12.10543,12.06 0 0 0 -2.08784,-0.06a1.00377,1 0 0 0 -1.00377,0.85a1.21456,1.21 0 0 0 0.48181,1.27a1.58595,1.58 0 0 0 1.72648,0.13a1.26475,1.26 0 0 1 1.45546,0.28a1.27478,1.27 0 0 1 0.25094,1.42a2.90089,2.89 0 0 0 -0.18068,0.92a1.3852,1.38 0 0 0 1.28482,1.31a1.11418,1.11 0 0 0 1.14429,-1.12a10.63993,10.6 0 0 0 -0.05019,-2a1.72648,1.72 0 0 1 0.47177,-1.47c0.9335,-1 1.78671,-2 2.7704,-2.9a3.31243,3.3 0 0 0 1.21456,-3c-0.09034,-0.54 -0.1606,-0.97 -0.74279,-1.24l0,-0.01zm22.08288,-18.27l0.33124,-0.29c0.87328,-0.81 1.75659,-1.61 2.61983,-2.43a1.80678,1.8 0 0 1 1.55584,-0.5a12.55713,12.51 0 0 0 2.00753,0a1.31493,1.31 0 0 0 0.74279,-0.39a1.00377,1 0 0 0 0.15057,-1.18a1.31493,1.31 0 0 0 -1.18445,-0.83a3.35258,3.34 0 0 0 -1.00377,0.19a1.31493,1.31 0 0 1 -1.35509,-0.29a1.27478,1.27 0 0 1 -0.27102,-1.41a3.36262,3.35 0 0 0 0.19072,-0.93a1.36512,1.36 0 0 0 -1.26475,-1.32a1.10414,1.1 0 0 0 -1.17441,1.14a8.8733,8.84 0 0 0 0.07026,2a2.00753,2 0 0 1 -0.76286,2.11c-0.79298,0.63 -1.51569,1.35 -2.25848,2l1.60603,2.13zm-22.72529,-2.21c-0.86324,-0.86 -1.71644,-1.72 -2.58972,-2.58a1.52573,1.52 0 0 1 -0.48181,-1.37a8.73277,8.7 0 0 0 0.0803,-1.69a2.43915,2.43 0 0 0 -0.42158,-1.18a1.00377,1 0 0 0 -1.32497,-0.13a1.37516,1.37 0 0 0 -0.72271,1.37a6.16313,6.14 0 0 0 0.23087,0.84a1.27478,1.27 0 0 1 -1.60603,1.61a6.20328,6.18 0 0 0 -0.84316,-0.24a1.40527,1.4 0 0 0 -1.53576,1.17a1.06399,1.06 0 0 0 1.07403,1.25a10.16816,10.13 0 0 0 2.20829,-0.08a1.84693,1.84 0 0 1 1.80678,0.6a5.95234,5.93 0 0 0 0.43162,0.44l2.00753,2.05l1.68633,-2.06z" class="cls-4"/>
    <path stroke="null" id="svg_16" fill="#fff" d="m756.6208,2146.36a3.93477,3.92 0 1 1 3.90465,-3.93a4.01507,4 0 0 1 -3.90465,3.93zm0,-5.22a1.3049,1.3 0 0 0 0,2.6a1.3049,1.3 0 1 0 0,-2.6z" class="cls-4"/>
    <path stroke="null" id="svg_17" fill="#fff" d="m767.02987,2146.36a3.93477,3.92 0 1 1 4.01507,-3.85a4.01507,4 0 0 1 -4.01507,3.85zm1.37516,-3.91a1.32497,1.32 0 0 0 -1.3049,-1.31a1.3049,1.3 0 1 0 0,2.6a1.32497,1.32 0 0 0 1.3049,-1.29z" class="cls-4"/>
    <path stroke="null" id="svg_18" fill="#fff" d="m761.86047,2150.66c-0.10038,0.16 -0.18068,0.29 -0.28105,0.42a1.29486,1.29 0 0 1 -1.64618,0.35a1.2246,1.22 0 0 1 -0.60226,-1.55a31.82946,31.71 0 0 1 1.45546,-2.92a1.24467,1.24 0 0 1 2.14806,0c0.54203,0.94 1.00377,1.92 1.4655,2.91a1.25471,1.25 0 0 1 -0.60226,1.56a1.29486,1.29 0 0 1 -1.64618,-0.36c-0.12045,-0.07 -0.20075,-0.25 -0.29109,-0.41z" class="cls-4"/>
    <circle stroke="#ed7178" id="svg_19" fill="#fff" stroke-width="6px" stroke-miterlimit="10" r="12.14" cy="15.14" cx="12.18694" class="cls-3"/>
    <line stroke="#ed7178" id="svg_20" fill="#fff" stroke-width="6px" stroke-miterlimit="10" y2="15.14" x2="-0.30996" y1="15.14" x1="2.00875" class="cls-3"/>
   </g>
  </g>
 </g>
</svg>