<svg width="1558.94" height="457.8" xmlns="http://www.w3.org/2000/svg">

 <g>
  <title>Layer 1</title>
  <g stroke="null" data-name="Capa 2" id="Capa_2">
   <g stroke="null" id="diseño">
    <polygon stroke="null" id="svg_1" opacity="0.8" fill="#2d3c5c" points="-0.5000301599502563,421.6700134277344 1523.10107421875,421.6700134277344 1523.8123779296875,361.42999267578125 1276.0858154296875,337 1019.5423583984375,299.9599914550781 761.2254028320312,209.85000610351562 459.8255310058594,112.38999938964844 351.9079284667969,70.22000122070312 227.95948791503906,37.16999816894531 -0.5000301599502563,3.6399993896484375 -0.5000301599502563,1 -0.5000301599502563,421.6700134277344 " class="cls-1"/>
    <polyline stroke="#2d3c5c" id="svg_2" stroke-miterlimit="10" stroke-width="5px" fill="none" opacity="0.8" points="1523.10107421875,421.6700134277344 1523.8123779296875,361.42999267578125 1276.0858154296875,334.8599853515625 1015.6448364257812,299.9599914550781 761.2254028320312,209.85000610351562 459.8255310058594,112.38999938964844 351.9079284667969,70.22000122070312 227.95948791503906,37.16999816894531 -0.5000301599502563,3.6399993896484375 -0.5000301599502563,1 " class="cls-2"/>
    <circle stroke="#2d3c5c" id="svg_3" stroke-width="6px" fill="#fff" stroke-miterlimit="10" r="12.14" cy="118" cx="501.90649" class="cls-3"/>
    <line stroke="#2d3c5c" id="svg_4" stroke-width="6px" fill="#fff" stroke-miterlimit="10" y2="118" x2="-0.50003" y1="118" x1="489.73307" class="cls-3"/>
    <circle stroke="#2d3c5c" id="svg_5" stroke-width="6px" fill="#fff" stroke-miterlimit="10" r="12.14" cy="212.2" cx="762.15716" class="cls-3"/>
    <line stroke="#2d3c5c" id="svg_6" stroke-width="6px" fill="#fff" stroke-miterlimit="10" y2="212.2" x2="-0.50003" y1="212.2" x1="749.98374" class="cls-3"/>
    <circle stroke="#2d3c5c" id="svg_7" stroke-width="6px" fill="#fff" stroke-miterlimit="10" r="12.14" cy="299.67" cx="1015.64482" class="cls-3"/>
    <line stroke="#2d3c5c" id="svg_8" stroke-width="6px" fill="#fff" stroke-miterlimit="10" y2="299.67" x2="-0.50003" y1="299.67" x1="1003.4714" class="cls-3"/>
    <circle stroke="#2d3c5c" id="svg_9" stroke-width="6px" fill="#fff" stroke-miterlimit="10" r="12.14" cy="334.86" cx="1276.09587" class="cls-3"/>
    <line stroke="#2d3c5c" id="svg_10" stroke-width="6px" fill="#fff" stroke-miterlimit="10" y2="334.86" x2="-0.50003" y1="334.86" x1="1263.92245" class="cls-3"/>
    <circle stroke="#2d3c5c" id="svg_11" stroke-width="6px" fill="#fff" stroke-miterlimit="10" r="12.14" cy="70.6" cx="351.51718" class="cls-3"/>
    <line stroke="#2d3c5c" id="svg_12" stroke-width="6px" fill="#fff" stroke-miterlimit="10" y2="72.22" x2="-0.50003" y1="72.22" x1="339.35378" class="cls-3"/>
    <line stroke="#2d3c5c" id="svg_13" stroke-width="5.92px" fill="#fff" stroke-miterlimit="10" y2="364.92" x2="-0.50003" y1="364.92" x1="1397.47938" class="cls-4"/>
    <circle stroke="#2d3c5c" id="svg_14" stroke-width="6px" fill="#fff" stroke-miterlimit="10" r="12.14" cy="33.85" cx="227.95948" class="cls-3"/>
    <line stroke="#2d3c5c" id="svg_15" stroke-width="6px" fill="#fff" stroke-miterlimit="10" y2="34.04" x2="-0.50003" y1="34.04" x1="215.79608" class="cls-3"/>
    <circle stroke="null" id="svg_16" r="37.06" cy="421.75" cx="1521.80857"/>
    <path stroke="null" id="svg_17" fill="#fff" d="m1499.46558,407.37l0,-0.44a0.66127,0.66 0 0 0 0.06012,-0.2a4.06783,4.06 0 0 1 3.43661,-3.49a0.49094,0.49 0 0 0 0.3106,-0.32a4.00771,4 0 0 1 1.59306,-2.65a3.74721,3.74 0 0 1 5.78112,1.53a6.07168,6.06 0 0 1 0.29056,2.83a0.84162,0.84 0 0 0 0.10019,0.56c0.73141,0.78 1.50289,1.53 2.2343,2.26c5.78112,-3.67 11.48209,-3.59 17.18306,0.11a13.02506,13 0 0 1 1.42274,-1.27a1.93372,1.93 0 0 0 0.82158,-2.11a4.27823,4.27 0 0 1 0.79152,-3.26a3.82736,3.82 0 0 1 6.36224,0.51a12.17342,12.15 0 0 1 0.68131,1.76a4.00771,4 0 0 1 2.8054,1.6a3.73719,3.73 0 0 1 -1.57303,5.81a6.66282,6.65 0 0 1 -2.84547,0.28a1.00193,1 0 0 0 -0.69133,0.22c-0.92177,0.82 -1.81349,1.67 -2.73526,2.5a0.55106,0.55 0 0 0 -0.16031,0.64a27.18229,27.13 0 0 1 0.79152,3.55a13.7765,13.75 0 0 1 -2.45472,9.48c-0.18035,0.26 -0.14027,0.4 0.07013,0.61l4.54875,4.51a1.00193,1 0 0 0 0.60116,0.23c0.59114,0 1.19229,0 1.78343,0a3.70713,3.7 0 0 1 3.28632,2.53a3.8474,3.84 0 0 1 -1.22235,4.17a4.00771,4 0 0 1 -2.32447,1a3.72717,3.72 0 0 1 -1.65318,2.91a11.3318,11.31 0 0 1 -1.84355,0.82l-1.00193,0a8.87708,8.86 0 0 1 -1.69326,-0.75a4.00771,4 0 0 1 -1.56301,-4a2.30443,2.3 0 0 0 -0.85164,-2.29a28.14414,28.09 0 0 1 -2.06397,-2a4.11792,4.11 0 0 1 -2.93565,1.11l-10.07939,0a4.22813,4.22 0 0 1 -2.17418,-0.54c-0.22042,-0.13 -0.43083,-0.29 -0.66127,-0.45c-0.80154,0.86 -1.55299,1.73 -2.37457,2.52a1.9237,1.92 0 0 0 -0.63121,1.76a4.19808,4.19 0 0 1 -1.00193,3.44a4.00771,4 0 0 1 -2.40463,1.2l-0.69133,0a0.46089,0.46 0 0 0 -0.16031,-0.07a4.00771,4 0 0 1 -2.51484,-1.42a4.08786,4.08 0 0 1 -0.92177,-2.23a4.14798,4.14 0 0 1 -2.93565,-1.66a4.60887,4.6 0 0 1 -0.80154,-1.94l0,-0.87l0.09017,-0.33a3.5368,3.53 0 0 1 3.00578,-2.81a21.09057,21.05 0 0 1 2.64509,-0.08a0.72139,0.72 0 0 0 0.47091,-0.13c1.53295,-1.59 3.00578,-3.19 4.58883,-4.81c-0.23044,-0.34 -0.45087,-0.66 -0.65125,-1a14.47785,14.45 0 0 1 -1.25241,-12.67a0.45087,0.45 0 0 0 -0.13025,-0.57c-0.81156,-0.79 -1.59306,-1.6 -2.41465,-2.39a1.07206,1.07 0 0 0 -0.60116,-0.22c-0.54104,0 -1.08208,0.08 -1.6131,0.07a4.07784,4.07 0 0 1 -3.3765,-1.59a4.4185,4.41 0 0 1 -0.75145,-1.96zm23.65551,26.12l0,-1.12a1.32254,1.32 0 1 1 2.62505,0l0,1.13l1.24239,0a1.31253,1.31 0 0 0 1.37264,-1.37a17.58383,17.55 0 0 0 0,-1.92a2.24432,2.24 0 0 1 0.95183,-2.05a11.31176,11.29 0 0 0 3.90752,-11.92a11.76263,11.74 0 0 0 -23.04433,4.68a11.36186,11.34 0 0 0 4.24817,7.35a1.9237,1.92 0 0 1 0.84162,1.75c0,0.71 0,1.42 0,2.14a1.21233,1.21 0 0 0 1.00193,1.27a11.19153,11.17 0 0 0 1.64316,0l0,-1.19a1.31253,1.31 0 1 1 2.62505,0l0,1.22l2.58497,0.03zm8.64663,-3.9a1.29249,1.29 0 0 0 -0.79152,1.48c0,0.35 0,0.72 0,1.08a1.15222,1.15 0 0 0 0.25048,0.6c1.1422,1.17 2.28439,2.35 3.48671,3.47a2.16416,2.16 0 0 1 0.69133,2.1a9.11754,9.1 0 0 0 -0.08015,1.95a1.12216,1.12 0 0 0 1.20231,1.16a1.39268,1.39 0 0 0 1.24239,-1.43a3.12601,3.12 0 0 0 -0.20039,-0.84a1.25241,1.25 0 0 1 0.28054,-1.41a1.28247,1.28 0 0 1 1.41272,-0.27a3.00578,3 0 0 0 1.00193,0.2a1.37264,1.37 0 0 0 1.29249,-1.29a1.08208,1.08 0 0 0 -1.12216,-1.13a7.01349,7 0 0 0 -1.77341,0a1.94374,1.94 0 0 1 -1.83353,-0.65c-1.68324,-1.67 -3.3765,-3.34 -5.05973,-5.02zm-19.80811,0.09c-1.54297,1.63 -3.12601,3.24 -4.63892,4.9a2.10405,2.1 0 0 1 -2.08401,0.73a11.13141,11.11 0 0 0 -2.08401,-0.07a1.06204,1.06 0 0 0 -1.00193,0.85a1.21233,1.21 0 0 0 0.48093,1.27a1.58305,1.58 0 0 0 1.73333,0.13a1.25241,1.25 0 0 1 1.44278,0.28a1.28247,1.28 0 0 1 0.25048,1.42a3.00578,3 0 0 0 -0.18035,0.93a1.38266,1.38 0 0 0 1.28247,1.3a1.11214,1.11 0 0 0 1.1422,-1.12a10.64047,10.62 0 0 0 0,-1.95a1.72332,1.72 0 0 1 0.47091,-1.47c0.93179,-1 1.78343,-2 2.76532,-2.9a3.30636,3.3 0 0 0 1.21233,-3c-0.14027,-0.59 -0.2104,-0.98 -0.79152,-1.3zm22.0424,-18.27l0.32062,-0.29c0.87168,-0.8 1.75337,-1.6 2.61503,-2.43a1.80347,1.8 0 0 1 1.55299,-0.5a11.49211,11.47 0 0 0 2.00385,0a1.31253,1.31 0 0 0 0.74143,-0.39a1.00193,1 0 0 0 0.15029,-1.17a1.32254,1.32 0 0 0 -1.18227,-0.84a3.70713,3.7 0 0 0 -1.00193,0.19a1.29249,1.29 0 0 1 -1.41272,-0.28a1.27245,1.27 0 0 1 -0.27052,-1.41a3.00578,3 0 0 0 0.19037,-0.93a1.38266,1.38 0 0 0 -1.26243,-1.32a1.10212,1.1 0 0 0 -1.17226,1.14a8.837,8.82 0 0 0 0.07013,2a2.00385,2 0 0 1 -0.76146,2.11c-0.79152,0.63 -1.51291,1.35 -2.25434,2l1.67322,2.12zm-22.69366,-2.21q-1.28247,-1.29 -2.58497,-2.58a1.52293,1.52 0 0 1 -0.48093,-1.37a8.71677,8.7 0 0 0 0.08015,-1.69a2.37457,2.37 0 0 0 -0.42081,-1.18a1.00193,1 0 0 0 -1.32254,-0.13a1.38266,1.38 0 0 0 -0.72139,1.37a5.78112,5.77 0 0 0 0.23044,0.84a1.27245,1.27 0 0 1 -1.60308,1.61a5.00964,5 0 0 0 -0.84162,-0.23a1.39268,1.39 0 0 0 -1.53295,1.16a1.07206,1.07 0 0 0 1.07206,1.26a10.82082,10.8 0 0 0 2.20424,-0.08a1.80347,1.8 0 0 1 1.80347,0.6c0.13025,0.15 0.28054,0.28 0.43083,0.43l2.00385,2.05l1.68324,-2.06z" class="cls-5"/>
    <path stroke="null" id="svg_18" fill="#fff" d="m1516.59854,423.05a3.92756,3.92 0 1 1 3.8975,-3.93a4.00771,4 0 0 1 -3.8975,3.93zm0,-5.22a1.30251,1.3 0 1 0 1.30251,1.3a1.31253,1.31 0 0 0 -1.32254,-1.3l0.02004,0z" class="cls-5"/>
    <path stroke="null" id="svg_19" fill="#fff" d="m1526.98853,423.05a3.92756,3.92 0 1 1 4.00771,-3.84a3.94759,3.94 0 0 1 -4.00771,3.84zm1.37264,-3.91a1.31253,1.31 0 1 0 -1.32254,1.29a1.31253,1.31 0 0 0 1.32254,-1.29z" class="cls-5"/>
    <path stroke="null" id="svg_20" fill="#fff" d="m1521.80857,427.35a3.82736,3.82 0 0 1 -0.28054,0.42a1.29249,1.29 0 0 1 -1.64316,0.35a1.23237,1.23 0 0 1 -0.60116,-1.55a30.38846,30.33 0 0 1 1.45279,-2.91a1.23237,1.23 0 0 1 2.14412,0c0.55106,0.94 1.00193,1.93 1.46281,2.91a1.24239,1.24 0 0 1 -0.60116,1.56a1.29249,1.29 0 0 1 -1.64316,-0.36c-0.10019,-0.13 -0.17033,-0.26 -0.29056,-0.42z" class="cls-5"/>
   </g>
  </g>
 </g>
</svg>