<svg xmlns="http://www.w3.org/2000/svg" viewBox="0 0 797.44 114.1"><defs><style>.cls-1{fill:#554c80;opacity:0.8;}.cls-2,.cls-3{fill:#fff;}.cls-2{stroke:#554c80;stroke-miterlimit:10;stroke-width:6px;}</style></defs><g id="Capa_2" data-name="Capa 2"><g id="diseño"><polyline class="cls-1" points="0 9.69 0 73.53 759.99 77.05 762.08 76.22 609.58 43.23 228.02 15.2"/><line y1="24.56" y2="4.9"/><circle class="cls-2" cx="228.02" cy="15.14" r="12.14"/><line class="cls-2" x1="215.88" y1="15.34" y2="15.34"/><circle class="cls-2" cx="609.58" cy="43.23" r="12.14"/><line class="cls-2" x1="597.44" y1="43.42" y2="43.42"/><circle class="cls-2" cx="764.34" cy="75.04" r="12.14"/><line class="cls-2" x1="752.19" y1="75.23" y2="75.23"/><circle cx="760.38" cy="77.05" r="37.06"/><path class="cls-3" d="M738.08,62.67v-.44a.76.76,0,0,0,.06-.2,4,4,0,0,1,3.43-3.49.52.52,0,0,0,.31-.32,4,4,0,0,1,1.59-2.65,3.74,3.74,0,0,1,5.77,1.53,6,6,0,0,1,.29,2.83.86.86,0,0,0,.1.56c.73.78,1.5,1.53,2.23,2.25,5.77-3.66,11.46-3.58,17.15.11a15.51,15.51,0,0,1,1.42-1.27,1.92,1.92,0,0,0,.82-2.11,4.29,4.29,0,0,1,.79-3.26,3.82,3.82,0,0,1,6.35.52,12.15,12.15,0,0,1,.68,1.76,4,4,0,0,1,2.8,1.6,3.73,3.73,0,0,1-1.57,5.81,6.49,6.49,0,0,1-2.84.27,1.08,1.08,0,0,0-.69.23c-.92.81-1.81,1.67-2.73,2.5a.54.54,0,0,0-.16.63,27.64,27.64,0,0,1,.79,3.56,13.72,13.72,0,0,1-2.45,9.47c-.18.27-.14.4.07.61,1.52,1.5,3,3,4.54,4.52a1,1,0,0,0,.6.23c.59,0,1.19,0,1.78,0a3.7,3.7,0,0,1,3.28,2.53,3.82,3.82,0,0,1-1.22,4.16,3.91,3.91,0,0,1-2.32,1,3.75,3.75,0,0,1-1.65,2.92,11.31,11.31,0,0,1-1.84.82h-1a9.53,9.53,0,0,1-1.69-.75,4,4,0,0,1-1.56-4,2.3,2.3,0,0,0-.85-2.29,28.09,28.09,0,0,1-2.06-2,4.15,4.15,0,0,1-2.93,1.11H755.35a4.22,4.22,0,0,1-2.17-.55c-.22-.13-.43-.28-.66-.44-.8.86-1.55,1.73-2.37,2.52a1.91,1.91,0,0,0-.63,1.76,4.17,4.17,0,0,1-1,3.43,4,4,0,0,1-2.4,1.21h-.69a.33.33,0,0,0-.16-.07,4.08,4.08,0,0,1-3.43-3.66c-1.67-.4-2.15-.67-2.93-1.65a4.6,4.6,0,0,1-.8-1.94v-.87l.09-.33a3.51,3.51,0,0,1,3-2.81,21.05,21.05,0,0,1,2.64-.08.72.72,0,0,0,.47-.13c1.53-1.59,3-3.19,4.58-4.81-.23-.34-.45-.66-.65-1a14,14,0,0,1-2.07-5.94,14.25,14.25,0,0,1,.82-6.72.45.45,0,0,0-.13-.57c-.81-.79-1.59-1.61-2.41-2.39a.94.94,0,0,0-.6-.22c-.54,0-1.08.08-1.61.07a4.05,4.05,0,0,1-3.37-1.6A4.37,4.37,0,0,1,738.08,62.67Zm23.61,26.12V87.66a1.32,1.32,0,1,1,2.62,0v1.13h1.24a1.3,1.3,0,0,0,1.37-1.37,17.39,17.39,0,0,0,0-1.91,2.24,2.24,0,0,1,1-2,11.29,11.29,0,0,0,3.9-11.92,11.74,11.74,0,0,0-23,4.68A11.37,11.37,0,0,0,753,83.58a1.92,1.92,0,0,1,.84,1.75c-.05.71,0,1.42,0,2.13a1.22,1.22,0,0,0,1,1.28,11.17,11.17,0,0,0,1.64,0v-1.2a1.31,1.31,0,1,1,2.62,0v1.23Zm8.63-3.9a1.28,1.28,0,0,0-.79,1.47c.05.36,0,.73,0,1.09a1.09,1.09,0,0,0,.25.59c1.14,1.18,2.28,2.36,3.48,3.48a2.15,2.15,0,0,1,.69,2.1,9.08,9.08,0,0,0-.08,1.95,1.14,1.14,0,0,0,1.2,1.16,1.39,1.39,0,0,0,1.24-1.43,3,3,0,0,0-.2-.84,1.29,1.29,0,0,1,1.69-1.68,3.21,3.21,0,0,0,1,.19,1.36,1.36,0,0,0,1.29-1.28A1.09,1.09,0,0,0,779,90.55a7.48,7.48,0,0,0-1.77,0,1.92,1.92,0,0,1-1.83-.64C773.69,88.24,772,86.57,770.32,84.89ZM750.55,85c-1.54,1.62-3.12,3.23-4.63,4.9a2.1,2.1,0,0,1-2.08.72,12,12,0,0,0-2.08-.06,1,1,0,0,0-1,.85,1.21,1.21,0,0,0,.48,1.27,1.6,1.6,0,0,0,1.73.13,1.25,1.25,0,0,1,1.44.28,1.3,1.3,0,0,1,.26,1.42,2.65,2.65,0,0,0-.19.92,1.38,1.38,0,0,0,1.28,1.31,1.11,1.11,0,0,0,1.14-1.12,10.6,10.6,0,0,0,0-1.95,1.72,1.72,0,0,1,.47-1.47c.93-1,1.78-2,2.76-2.9a3.3,3.3,0,0,0,1.21-3C751.2,85.69,751.13,85.26,750.55,85Zm22-18.27.32-.29c.87-.81,1.75-1.61,2.61-2.43a1.8,1.8,0,0,1,1.55-.5,12.51,12.51,0,0,0,2,0,1.31,1.31,0,0,0,.74-.39,1,1,0,0,0,.15-1.18,1.31,1.31,0,0,0-1.18-.83,3.34,3.34,0,0,0-1,.19A1.31,1.31,0,0,1,776.4,61a1.27,1.27,0,0,1-.27-1.41,3,3,0,0,0,.19-.93,1.36,1.36,0,0,0-1.26-1.32,1.1,1.1,0,0,0-1.17,1.14,8.84,8.84,0,0,0,.07,2,2,2,0,0,1-.76,2.11c-.79.63-1.51,1.35-2.25,2ZM749.91,64.5q-1.27-1.29-2.58-2.58a1.52,1.52,0,0,1-.48-1.37,8.7,8.7,0,0,0,.08-1.69,2.34,2.34,0,0,0-.42-1.18,1,1,0,0,0-1.32-.13,1.37,1.37,0,0,0-.72,1.37,6.14,6.14,0,0,0,.23.84,1.27,1.27,0,0,1-1.6,1.61,6.18,6.18,0,0,0-.84-.24,1.4,1.4,0,0,0-1.53,1.17,1.06,1.06,0,0,0,1.07,1.25,10.13,10.13,0,0,0,2.2-.08,1.84,1.84,0,0,1,1.8.6,5.93,5.93,0,0,0,.43.44l2,2Z"/><path class="cls-3" d="M755.18,78.35a3.92,3.92,0,1,1,3.89-3.93A4,4,0,0,1,755.18,78.35Zm0-5.22a1.3,1.3,0,1,0,1.3,1.3A1.31,1.31,0,0,0,755.16,73.13Z"/><path class="cls-3" d="M765.55,78.35a3.92,3.92,0,1,1,4-3.85A3.94,3.94,0,0,1,765.55,78.35Zm1.37-3.91a1.31,1.31,0,1,0-1.32,1.29A1.31,1.31,0,0,0,766.92,74.44Z"/><path class="cls-3" d="M760.38,82.65c-.1.16-.18.29-.28.42a1.29,1.29,0,0,1-1.64.35,1.23,1.23,0,0,1-.6-1.55A31.71,31.71,0,0,1,759.31,79a1.24,1.24,0,0,1,2.14,0,31.62,31.62,0,0,1,1.46,2.91,1.24,1.24,0,0,1-.6,1.56,1.29,1.29,0,0,1-1.64-.36C760.57,82.94,760.49,82.81,760.38,82.65Z"/></g></g></svg>