<svg width="797.44" height="114.1" xmlns="http://www.w3.org/2000/svg">

 <g>
  <title>Layer 1</title>
  <g data-name="Capa 2" id="Capa_2">
   <g id="diseño">
    <polyline id="svg_1" opacity="0.8" fill="#554c80" points="0 9.69 0 73.53 759.99 77.05 762.08 76.22 609.58 43.23 228.02 15.2" class="cls-1"/>
    <line id="svg_2" y2="4.9" y1="24.56"/>
    <circle id="svg_3" stroke-width="6px" stroke-miterlimit="10" stroke="#554c80" fill="#fff" r="12.14" cy="15.14" cx="228.02" class="cls-2"/>
    <line id="svg_4" stroke-width="6px" stroke-miterlimit="10" stroke="#554c80" fill="#fff" y2="15.34" y1="15.34" x1="215.88" class="cls-2"/>
    <circle id="svg_5" stroke-width="6px" stroke-miterlimit="10" stroke="#554c80" fill="#fff" r="12.14" cy="43.23" cx="609.58" class="cls-2"/>
    <line id="svg_6" stroke-width="6px" stroke-miterlimit="10" stroke="#554c80" fill="#fff" y2="43.42" y1="43.42" x1="597.44" class="cls-2"/>
    <circle id="svg_7" stroke-width="6px" stroke-miterlimit="10" stroke="#554c80" fill="#fff" r="12.14" cy="75.04" cx="764.34" class="cls-2"/>
    <line id="svg_8" stroke-width="6px" stroke-miterlimit="10" stroke="#554c80" fill="#fff" y2="75.23" y1="75.23" x1="752.19" class="cls-2"/>
    <circle id="svg_9" r="37.06" cy="77.05" cx="760.38"/>
    <path id="svg_10" fill="#fff" d="m738.08,62.67l0,-0.44a0.76,0.76 0 0 0 0.06,-0.2a4,4 0 0 1 3.43,-3.49a0.52,0.52 0 0 0 0.31,-0.32a4,4 0 0 1 1.59,-2.65a3.74,3.74 0 0 1 5.77,1.53a6,6 0 0 1 0.29,2.83a0.86,0.86 0 0 0 0.1,0.56c0.73,0.78 1.5,1.53 2.23,2.25c5.77,-3.66 11.46,-3.58 17.15,0.11a15.51,15.51 0 0 1 1.42,-1.27a1.92,1.92 0 0 0 0.82,-2.11a4.29,4.29 0 0 1 0.79,-3.26a3.82,3.82 0 0 1 6.35,0.52a12.15,12.15 0 0 1 0.68,1.76a4,4 0 0 1 2.8,1.6a3.73,3.73 0 0 1 -1.57,5.81a6.49,6.49 0 0 1 -2.84,0.27a1.08,1.08 0 0 0 -0.69,0.23c-0.92,0.81 -1.81,1.67 -2.73,2.5a0.54,0.54 0 0 0 -0.16,0.63a27.64,27.64 0 0 1 0.79,3.56a13.72,13.72 0 0 1 -2.45,9.47c-0.18,0.27 -0.14,0.4 0.07,0.61c1.52,1.5 3,3 4.54,4.52a1,1 0 0 0 0.6,0.23c0.59,0 1.19,0 1.78,0a3.7,3.7 0 0 1 3.28,2.53a3.82,3.82 0 0 1 -1.22,4.16a3.91,3.91 0 0 1 -2.32,1a3.75,3.75 0 0 1 -1.65,2.92a11.31,11.31 0 0 1 -1.84,0.82l-1,0a9.53,9.53 0 0 1 -1.69,-0.75a4,4 0 0 1 -1.56,-4a2.3,2.3 0 0 0 -0.85,-2.29a28.09,28.09 0 0 1 -2.06,-2a4.15,4.15 0 0 1 -2.93,1.11l-10.02,0a4.22,4.22 0 0 1 -2.17,-0.55c-0.22,-0.13 -0.43,-0.28 -0.66,-0.44c-0.8,0.86 -1.55,1.73 -2.37,2.52a1.91,1.91 0 0 0 -0.63,1.76a4.17,4.17 0 0 1 -1,3.43a4,4 0 0 1 -2.4,1.21l-0.69,0a0.33,0.33 0 0 0 -0.16,-0.07a4.08,4.08 0 0 1 -3.43,-3.66c-1.67,-0.4 -2.15,-0.67 -2.93,-1.65a4.6,4.6 0 0 1 -0.8,-1.94l0,-0.87l0.09,-0.33a3.51,3.51 0 0 1 3,-2.81a21.05,21.05 0 0 1 2.64,-0.08a0.72,0.72 0 0 0 0.47,-0.13c1.53,-1.59 3,-3.19 4.58,-4.81c-0.23,-0.34 -0.45,-0.66 -0.65,-1a14,14 0 0 1 -2.07,-5.94a14.25,14.25 0 0 1 0.82,-6.72a0.45,0.45 0 0 0 -0.13,-0.57c-0.81,-0.79 -1.59,-1.61 -2.41,-2.39a0.94,0.94 0 0 0 -0.6,-0.22c-0.54,0 -1.08,0.08 -1.61,0.07a4.05,4.05 0 0 1 -3.37,-1.6a4.37,4.37 0 0 1 -0.79,-1.96zm23.61,26.12l0,-1.13a1.32,1.32 0 1 1 2.62,0l0,1.13l1.24,0a1.3,1.3 0 0 0 1.37,-1.37a17.39,17.39 0 0 0 0,-1.91a2.24,2.24 0 0 1 1,-2a11.29,11.29 0 0 0 3.9,-11.92a11.74,11.74 0 0 0 -23,4.68a11.37,11.37 0 0 0 4.18,7.31a1.92,1.92 0 0 1 0.84,1.75c-0.05,0.71 0,1.42 0,2.13a1.22,1.22 0 0 0 1,1.28a11.17,11.17 0 0 0 1.64,0l0,-1.2a1.31,1.31 0 1 1 2.62,0l0,1.23l2.59,0.02zm8.63,-3.9a1.28,1.28 0 0 0 -0.79,1.47c0.05,0.36 0,0.73 0,1.09a1.09,1.09 0 0 0 0.25,0.59c1.14,1.18 2.28,2.36 3.48,3.48a2.15,2.15 0 0 1 0.69,2.1a9.08,9.08 0 0 0 -0.08,1.95a1.14,1.14 0 0 0 1.2,1.16a1.39,1.39 0 0 0 1.24,-1.43a3,3 0 0 0 -0.2,-0.84a1.29,1.29 0 0 1 1.69,-1.68a3.21,3.21 0 0 0 1,0.19a1.36,1.36 0 0 0 1.29,-1.28a1.09,1.09 0 0 0 -1.09,-1.14a7.48,7.48 0 0 0 -1.77,0a1.92,1.92 0 0 1 -1.83,-0.64c-1.71,-1.67 -3.4,-3.34 -5.08,-5.02zm-19.77,0.11c-1.54,1.62 -3.12,3.23 -4.63,4.9a2.1,2.1 0 0 1 -2.08,0.72a12,12 0 0 0 -2.08,-0.06a1,1 0 0 0 -1,0.85a1.21,1.21 0 0 0 0.48,1.27a1.6,1.6 0 0 0 1.73,0.13a1.25,1.25 0 0 1 1.44,0.28a1.3,1.3 0 0 1 0.26,1.42a2.65,2.65 0 0 0 -0.19,0.92a1.38,1.38 0 0 0 1.28,1.31a1.11,1.11 0 0 0 1.14,-1.12a10.6,10.6 0 0 0 0,-1.95a1.72,1.72 0 0 1 0.47,-1.47c0.93,-1 1.78,-2 2.76,-2.9a3.3,3.3 0 0 0 1.21,-3c-0.14,-0.61 -0.21,-1.04 -0.79,-1.3zm22,-18.27l0.32,-0.29c0.87,-0.81 1.75,-1.61 2.61,-2.43a1.8,1.8 0 0 1 1.55,-0.5a12.51,12.51 0 0 0 2,0a1.31,1.31 0 0 0 0.74,-0.39a1,1 0 0 0 0.15,-1.18a1.31,1.31 0 0 0 -1.18,-0.83a3.34,3.34 0 0 0 -1,0.19a1.31,1.31 0 0 1 -1.34,-0.3a1.27,1.27 0 0 1 -0.27,-1.41a3,3 0 0 0 0.19,-0.93a1.36,1.36 0 0 0 -1.26,-1.32a1.1,1.1 0 0 0 -1.17,1.14a8.84,8.84 0 0 0 0.07,2a2,2 0 0 1 -0.76,2.11c-0.79,0.63 -1.51,1.35 -2.25,2l1.6,2.14zm-22.64,-2.23q-1.27,-1.29 -2.58,-2.58a1.52,1.52 0 0 1 -0.48,-1.37a8.7,8.7 0 0 0 0.08,-1.69a2.34,2.34 0 0 0 -0.42,-1.18a1,1 0 0 0 -1.32,-0.13a1.37,1.37 0 0 0 -0.72,1.37a6.14,6.14 0 0 0 0.23,0.84a1.27,1.27 0 0 1 -1.6,1.61a6.18,6.18 0 0 0 -0.84,-0.24a1.4,1.4 0 0 0 -1.53,1.17a1.06,1.06 0 0 0 1.07,1.25a10.13,10.13 0 0 0 2.2,-0.08a1.84,1.84 0 0 1 1.8,0.6a5.93,5.93 0 0 0 0.43,0.44l2,2l1.68,-2.01z" class="cls-3"/>
    <path id="svg_11" fill="#fff" d="m755.18,78.35a3.92,3.92 0 1 1 3.89,-3.93a4,4 0 0 1 -3.89,3.93zm0,-5.22a1.3,1.3 0 1 0 1.3,1.3a1.31,1.31 0 0 0 -1.32,-1.3l0.02,0z" class="cls-3"/>
    <path id="svg_12" fill="#fff" d="m765.55,78.35a3.92,3.92 0 1 1 4,-3.85a3.94,3.94 0 0 1 -4,3.85zm1.37,-3.91a1.31,1.31 0 1 0 -1.32,1.29a1.31,1.31 0 0 0 1.32,-1.29z" class="cls-3"/>
    <path id="svg_13" fill="#fff" d="m760.38,82.65c-0.1,0.16 -0.18,0.29 -0.28,0.42a1.29,1.29 0 0 1 -1.64,0.35a1.23,1.23 0 0 1 -0.6,-1.55a31.71,31.71 0 0 1 1.45,-2.87a1.24,1.24 0 0 1 2.14,0a31.62,31.62 0 0 1 1.46,2.91a1.24,1.24 0 0 1 -0.6,1.56a1.29,1.29 0 0 1 -1.64,-0.36c-0.1,-0.17 -0.18,-0.3 -0.29,-0.46z" class="cls-3"/>
   </g>
  </g>
 </g>
</svg>