<svg xmlns="http://www.w3.org/2000/svg" viewBox="0 0 1312.82 243.29"><defs><style>.cls-1{fill:#c14632;opacity:0.8;}.cls-2{fill:none;}.cls-2,.cls-3{stroke:#c14632;stroke-miterlimit:10;stroke-width:6px;}.cls-3,.cls-4{fill:#fff;}</style></defs><g id="Capa_2" data-name="Capa 2"><g id="diseño"><polygon class="cls-1" points="0 15.34 228.02 15.14 499.58 105.01 894.34 136.97 1274.74 166.21 1274.16 197.08 0 195.08 0 15.34"/><polyline class="cls-2" points="0 15.34 228.02 15.14 499.58 105.01 894.34 136.97 1274.74 166.21"/><circle class="cls-3" cx="228.02" cy="15.14" r="12.14"/><line class="cls-3" x1="215.88" y1="15.34" y2="15.34"/><circle class="cls-3" cx="499.58" cy="105.01" r="12.14"/><line class="cls-3" x1="487.44" y1="105.2" y2="105.2"/><circle class="cls-3" cx="894.34" cy="136.97" r="12.14"/><line class="cls-3" x1="882.2" y1="137.17" y2="137.17"/><circle class="cls-3" cx="1275.76" cy="165.21" r="12.14"/><line class="cls-3" x1="1263.62" y1="165.4" y2="165.4"/><circle cx="1275.76" cy="206.23" r="37.06"/><path class="cls-4" d="M1253.45,191.86v-.44a.53.53,0,0,0,.07-.2,4.06,4.06,0,0,1,3.43-3.5.47.47,0,0,0,.31-.32,4,4,0,0,1,1.59-2.65,3.75,3.75,0,0,1,5.77,1.54,6,6,0,0,1,.29,2.83.86.86,0,0,0,.1.56c.73.78,1.5,1.52,2.23,2.25,5.77-3.66,11.46-3.58,17.15.11a15.51,15.51,0,0,1,1.42-1.27,1.94,1.94,0,0,0,.82-2.11,4.29,4.29,0,0,1,.79-3.26,3.81,3.81,0,0,1,6.34.52,10.75,10.75,0,0,1,.69,1.76,4,4,0,0,1,2.8,1.6,3.73,3.73,0,0,1-1.58,5.81,6.44,6.44,0,0,1-2.83.27,1.06,1.06,0,0,0-.69.23c-.92.81-1.81,1.67-2.73,2.5a.52.52,0,0,0-.16.63,27.64,27.64,0,0,1,.79,3.56,13.73,13.73,0,0,1-2.45,9.47c-.19.27-.15.4.07.61,1.52,1.5,3,3,4.54,4.52a1,1,0,0,0,.6.22c.59,0,1.19,0,1.78,0a3.72,3.72,0,0,1,3.28,2.53,3.83,3.83,0,0,1-1.22,4.17,3.91,3.91,0,0,1-2.32,1,3.75,3.75,0,0,1-1.65,2.92,10.48,10.48,0,0,1-1.84.81h-1a9.5,9.5,0,0,1-1.69-.74,4,4,0,0,1-1.56-4,2.3,2.3,0,0,0-.85-2.29,28.12,28.12,0,0,1-2.06-2,4.15,4.15,0,0,1-2.93,1.11c-3.36,0-6.71,0-10.07,0a4.19,4.19,0,0,1-2.16-.55c-.22-.13-.43-.29-.66-.44-.8.85-1.55,1.72-2.38,2.51a1.94,1.94,0,0,0-.62,1.76,4.26,4.26,0,0,1-1,3.44,4,4,0,0,1-2.4,1.2h-.7a.69.69,0,0,0-.15-.07,3.94,3.94,0,0,1-2.51-1.42,4,4,0,0,1-.92-2.23c-1.67-.4-2.15-.67-2.93-1.66a4.71,4.71,0,0,1-.81-1.93v-.87c0-.11.07-.22.1-.33a3.54,3.54,0,0,1,3-2.82,23.15,23.15,0,0,1,2.64-.07.74.74,0,0,0,.46-.13c1.53-1.59,3.05-3.2,4.59-4.81-.23-.35-.45-.67-.65-1a14.42,14.42,0,0,1-1.25-12.66.45.45,0,0,0-.13-.57c-.81-.79-1.59-1.61-2.41-2.39a.94.94,0,0,0-.6-.22c-.54,0-1.08.08-1.61.06a4,4,0,0,1-3.37-1.59A4.56,4.56,0,0,1,1253.45,191.86ZM1277.07,218v-1.12a1.32,1.32,0,1,1,2.61,0c0,.37,0,.74,0,1.12h1.25a1.31,1.31,0,0,0,1.37-1.37,17.37,17.37,0,0,0,0-1.91,2.24,2.24,0,0,1,1-2.05,11.31,11.31,0,0,0,3.9-11.93,11.74,11.74,0,0,0-23,4.68,11.42,11.42,0,0,0,4.25,7.36,1.92,1.92,0,0,1,.84,1.75c0,.71,0,1.42,0,2.13a1.22,1.22,0,0,0,1,1.28,11.19,11.19,0,0,0,1.64,0v-1.19a1.31,1.31,0,1,1,2.61,0c0,.4,0,.81,0,1.22Zm8.63-3.89a1.3,1.3,0,0,0-.8,1.47c0,.36,0,.73,0,1.09a1.12,1.12,0,0,0,.25.59c1.14,1.18,2.28,2.36,3.48,3.47a2.2,2.2,0,0,1,.69,2.11,9.08,9.08,0,0,0-.08,1.95,1.13,1.13,0,0,0,1.2,1.16,1.4,1.4,0,0,0,1.24-1.43,3,3,0,0,0-.2-.84,1.29,1.29,0,0,1,1.69-1.68,3.21,3.21,0,0,0,1,.19,1.37,1.37,0,0,0,1.29-1.28,1.08,1.08,0,0,0-1.12-1.14,7.48,7.48,0,0,0-1.77,0,1.92,1.92,0,0,1-1.83-.64C1289.07,217.43,1287.38,215.76,1285.7,214.08Zm-19.77.09c-1.54,1.62-3.12,3.23-4.63,4.9a2.12,2.12,0,0,1-2.08.72,12.06,12.06,0,0,0-2.08-.06,1,1,0,0,0-1,.85,1.21,1.21,0,0,0,.48,1.27,1.56,1.56,0,0,0,1.72.12,1.29,1.29,0,0,1,1.7,1.7,3,3,0,0,0-.18.93,1.38,1.38,0,0,0,1.28,1.31,1.11,1.11,0,0,0,1.14-1.12,10.57,10.57,0,0,0,0-1.95,1.72,1.72,0,0,1,.47-1.47c.93-1,1.78-2,2.76-2.9a3.3,3.3,0,0,0,1.21-3C1266.58,214.88,1266.51,214.45,1265.93,214.17Zm22-18.28.33-.28c.87-.81,1.75-1.61,2.61-2.43a1.84,1.84,0,0,1,1.55-.51,12.51,12.51,0,0,0,2,0,1.27,1.27,0,0,0,.74-.4,1,1,0,0,0,.15-1.17,1.3,1.3,0,0,0-1.18-.83,3.34,3.34,0,0,0-1,.19,1.31,1.31,0,0,1-1.41-.28,1.27,1.27,0,0,1-.27-1.41,3.35,3.35,0,0,0,.19-.93,1.36,1.36,0,0,0-1.26-1.32,1.09,1.09,0,0,0-1.17,1.13,8.93,8.93,0,0,0,.07,2,2.06,2.06,0,0,1-.76,2.11c-.79.62-1.51,1.35-2.25,2Zm-22.64-2.21c-.86-.85-1.71-1.72-2.58-2.57a1.52,1.52,0,0,1-.48-1.37,8.7,8.7,0,0,0,.08-1.69,2.43,2.43,0,0,0-.42-1.18,1,1,0,0,0-1.32-.13,1.37,1.37,0,0,0-.72,1.37,6,6,0,0,0,.23.83,1.28,1.28,0,0,1-1.6,1.62,6.18,6.18,0,0,0-.84-.24,1.4,1.4,0,0,0-1.53,1.17,1.06,1.06,0,0,0,1.07,1.25,10.8,10.8,0,0,0,2.2-.08,1.84,1.84,0,0,1,1.8.6,4.36,4.36,0,0,0,.43.43c.68.69,1.36,1.38,2.05,2.06Z"/><path class="cls-4" d="M1270.56,207.53a3.92,3.92,0,1,1,3.89-3.92A3.93,3.93,0,0,1,1270.56,207.53Zm0-5.22a1.31,1.31,0,1,0,1.31,1.31A1.31,1.31,0,0,0,1270.53,202.31Z"/><path class="cls-4" d="M1280.93,207.53a3.92,3.92,0,1,1,4-3.84A3.95,3.95,0,0,1,1280.93,207.53Zm1.37-3.9a1.33,1.33,0,0,0-1.3-1.32,1.31,1.31,0,1,0,1.3,1.32Z"/><path class="cls-4" d="M1275.76,211.84a3.64,3.64,0,0,1-.28.41,1.29,1.29,0,0,1-1.64.36,1.23,1.23,0,0,1-.6-1.56,31.54,31.54,0,0,1,1.45-2.91,1.24,1.24,0,0,1,2.14,0c.54.94,1,1.92,1.46,2.91a1.23,1.23,0,0,1-.6,1.55,1.27,1.27,0,0,1-1.64-.35C1276,212.13,1275.87,212,1275.76,211.84Z"/></g></g></svg>