<svg width="1312.82" height="243.29" xmlns="http://www.w3.org/2000/svg">

 <g>
  <title>Layer 1</title>
  <g data-name="Capa 2" id="Capa_2">
   <g id="diseño">
    <polygon id="svg_1" opacity="0.8" fill="#c14632" points="0 15.34 228.02 15.14 499.58 105.01 894.34 136.97 1274.74 166.21 1274.16 197.08 0 195.08 0 15.34" class="cls-1"/>
    <polyline id="svg_2" stroke-width="6px" stroke-miterlimit="10" stroke="#c14632" fill="none" points="0 15.34 228.02 15.14 499.58 105.01 894.34 136.97 1274.74 166.21" class="cls-2"/>
    <circle id="svg_3" fill="#fff" stroke-width="6px" stroke-miterlimit="10" stroke="#c14632" r="12.14" cy="15.14" cx="228.02" class="cls-3"/>
    <line id="svg_4" fill="#fff" stroke-width="6px" stroke-miterlimit="10" stroke="#c14632" y2="15.34" y1="15.34" x1="215.88" class="cls-3"/>
    <circle id="svg_5" fill="#fff" stroke-width="6px" stroke-miterlimit="10" stroke="#c14632" r="12.14" cy="105.01" cx="499.58" class="cls-3"/>
    <line id="svg_6" fill="#fff" stroke-width="6px" stroke-miterlimit="10" stroke="#c14632" y2="105.2" y1="105.2" x1="487.44" class="cls-3"/>
    <circle id="svg_7" fill="#fff" stroke-width="6px" stroke-miterlimit="10" stroke="#c14632" r="12.14" cy="136.97" cx="894.34" class="cls-3"/>
    <line id="svg_8" fill="#fff" stroke-width="6px" stroke-miterlimit="10" stroke="#c14632" y2="137.17" y1="137.17" x1="882.2" class="cls-3"/>
    <circle id="svg_9" fill="#fff" stroke-width="6px" stroke-miterlimit="10" stroke="#c14632" r="12.14" cy="165.21" cx="1275.76" class="cls-3"/>
    <line id="svg_10" fill="#fff" stroke-width="6px" stroke-miterlimit="10" stroke="#c14632" y2="165.4" y1="165.4" x1="1263.62" class="cls-3"/>
    <circle id="svg_11" r="37.06" cy="206.23" cx="1275.76"/>
    <path id="svg_12" fill="#fff" d="m1253.45,191.86l0,-0.44a0.53,0.53 0 0 0 0.07,-0.2a4.06,4.06 0 0 1 3.43,-3.5a0.47,0.47 0 0 0 0.31,-0.32a4,4 0 0 1 1.59,-2.65a3.75,3.75 0 0 1 5.77,1.54a6,6 0 0 1 0.29,2.83a0.86,0.86 0 0 0 0.1,0.56c0.73,0.78 1.5,1.52 2.23,2.25c5.77,-3.66 11.46,-3.58 17.15,0.11a15.51,15.51 0 0 1 1.42,-1.27a1.94,1.94 0 0 0 0.82,-2.11a4.29,4.29 0 0 1 0.79,-3.26a3.81,3.81 0 0 1 6.34,0.52a10.75,10.75 0 0 1 0.69,1.76a4,4 0 0 1 2.8,1.6a3.73,3.73 0 0 1 -1.58,5.81a6.44,6.44 0 0 1 -2.83,0.27a1.06,1.06 0 0 0 -0.69,0.23c-0.92,0.81 -1.81,1.67 -2.73,2.5a0.52,0.52 0 0 0 -0.16,0.63a27.64,27.64 0 0 1 0.79,3.56a13.73,13.73 0 0 1 -2.45,9.47c-0.19,0.27 -0.15,0.4 0.07,0.61c1.52,1.5 3,3 4.54,4.52a1,1 0 0 0 0.6,0.22c0.59,0 1.19,0 1.78,0a3.72,3.72 0 0 1 3.28,2.53a3.83,3.83 0 0 1 -1.22,4.17a3.91,3.91 0 0 1 -2.32,1a3.75,3.75 0 0 1 -1.65,2.92a10.48,10.48 0 0 1 -1.84,0.81l-1,0a9.5,9.5 0 0 1 -1.69,-0.74a4,4 0 0 1 -1.56,-4a2.3,2.3 0 0 0 -0.85,-2.29a28.12,28.12 0 0 1 -2.06,-2a4.15,4.15 0 0 1 -2.93,1.11c-3.36,0 -6.71,0 -10.07,0a4.19,4.19 0 0 1 -2.16,-0.55c-0.22,-0.13 -0.43,-0.29 -0.66,-0.44c-0.8,0.85 -1.55,1.72 -2.38,2.51a1.94,1.94 0 0 0 -0.62,1.76a4.26,4.26 0 0 1 -1,3.44a4,4 0 0 1 -2.4,1.2l-0.7,0a0.69,0.69 0 0 0 -0.15,-0.07a3.94,3.94 0 0 1 -2.51,-1.42a4,4 0 0 1 -0.92,-2.23c-1.67,-0.4 -2.15,-0.67 -2.93,-1.66a4.71,4.71 0 0 1 -0.81,-1.93l0,-0.87c0,-0.11 0.07,-0.22 0.1,-0.33a3.54,3.54 0 0 1 3,-2.82a23.15,23.15 0 0 1 2.64,-0.07a0.74,0.74 0 0 0 0.46,-0.13c1.53,-1.59 3.05,-3.2 4.59,-4.81c-0.23,-0.35 -0.45,-0.67 -0.65,-1a14.42,14.42 0 0 1 -1.25,-12.66a0.45,0.45 0 0 0 -0.13,-0.57c-0.81,-0.79 -1.59,-1.61 -2.41,-2.39a0.94,0.94 0 0 0 -0.6,-0.22c-0.54,0 -1.08,0.08 -1.61,0.06a4,4 0 0 1 -3.37,-1.59a4.56,4.56 0 0 1 -0.76,-1.96zm23.62,26.14l0,-1.12a1.32,1.32 0 1 1 2.61,0c0,0.37 0,0.74 0,1.12l1.25,0a1.31,1.31 0 0 0 1.37,-1.37a17.37,17.37 0 0 0 0,-1.91a2.24,2.24 0 0 1 1,-2.05a11.31,11.31 0 0 0 3.9,-11.93a11.74,11.74 0 0 0 -23,4.68a11.42,11.42 0 0 0 4.25,7.36a1.92,1.92 0 0 1 0.84,1.75c0,0.71 0,1.42 0,2.13a1.22,1.22 0 0 0 1,1.28a11.19,11.19 0 0 0 1.64,0l0,-1.19a1.31,1.31 0 1 1 2.61,0c0,0.4 0,0.81 0,1.22l2.53,0.03zm8.63,-3.89a1.3,1.3 0 0 0 -0.8,1.47c0,0.36 0,0.73 0,1.09a1.12,1.12 0 0 0 0.25,0.59c1.14,1.18 2.28,2.36 3.48,3.47a2.2,2.2 0 0 1 0.69,2.11a9.08,9.08 0 0 0 -0.08,1.95a1.13,1.13 0 0 0 1.2,1.16a1.4,1.4 0 0 0 1.24,-1.43a3,3 0 0 0 -0.2,-0.84a1.29,1.29 0 0 1 1.69,-1.68a3.21,3.21 0 0 0 1,0.19a1.37,1.37 0 0 0 1.29,-1.28a1.08,1.08 0 0 0 -1.12,-1.14a7.48,7.48 0 0 0 -1.77,0a1.92,1.92 0 0 1 -1.83,-0.64c-1.67,-1.7 -3.36,-3.37 -5.04,-5.05l0,0.03zm-19.77,0.09c-1.54,1.62 -3.12,3.23 -4.63,4.9a2.12,2.12 0 0 1 -2.08,0.72a12.06,12.06 0 0 0 -2.08,-0.06a1,1 0 0 0 -1,0.85a1.21,1.21 0 0 0 0.48,1.27a1.56,1.56 0 0 0 1.72,0.12a1.29,1.29 0 0 1 1.7,1.7a3,3 0 0 0 -0.18,0.93a1.38,1.38 0 0 0 1.28,1.31a1.11,1.11 0 0 0 1.14,-1.12a10.57,10.57 0 0 0 0,-1.95a1.72,1.72 0 0 1 0.47,-1.47c0.93,-1 1.78,-2 2.76,-2.9a3.3,3.3 0 0 0 1.21,-3c-0.14,-0.62 -0.21,-1.05 -0.79,-1.33l0,0.03zm22,-18.28l0.33,-0.28c0.87,-0.81 1.75,-1.61 2.61,-2.43a1.84,1.84 0 0 1 1.55,-0.51a12.51,12.51 0 0 0 2,0a1.27,1.27 0 0 0 0.74,-0.4a1,1 0 0 0 0.15,-1.17a1.3,1.3 0 0 0 -1.18,-0.83a3.34,3.34 0 0 0 -1,0.19a1.31,1.31 0 0 1 -1.41,-0.28a1.27,1.27 0 0 1 -0.27,-1.41a3.35,3.35 0 0 0 0.19,-0.93a1.36,1.36 0 0 0 -1.26,-1.32a1.09,1.09 0 0 0 -1.17,1.13a8.93,8.93 0 0 0 0.07,2a2.06,2.06 0 0 1 -0.76,2.11c-0.79,0.62 -1.51,1.35 -2.25,2l1.66,2.13zm-22.64,-2.21c-0.86,-0.85 -1.71,-1.72 -2.58,-2.57a1.52,1.52 0 0 1 -0.48,-1.37a8.7,8.7 0 0 0 0.08,-1.69a2.43,2.43 0 0 0 -0.42,-1.18a1,1 0 0 0 -1.32,-0.13a1.37,1.37 0 0 0 -0.72,1.37a6,6 0 0 0 0.23,0.83a1.28,1.28 0 0 1 -1.6,1.62a6.18,6.18 0 0 0 -0.84,-0.24a1.4,1.4 0 0 0 -1.53,1.17a1.06,1.06 0 0 0 1.07,1.25a10.8,10.8 0 0 0 2.2,-0.08a1.84,1.84 0 0 1 1.8,0.6a4.36,4.36 0 0 0 0.43,0.43c0.68,0.69 1.36,1.38 2.05,2.06l1.63,-2.07z" class="cls-4"/>
    <path id="svg_13" fill="#fff" d="m1270.56,207.53a3.92,3.92 0 1 1 3.89,-3.92a3.93,3.93 0 0 1 -3.89,3.92zm0,-5.22a1.31,1.31 0 1 0 1.31,1.31a1.31,1.31 0 0 0 -1.34,-1.31l0.03,0z" class="cls-4"/>
    <path id="svg_14" fill="#fff" d="m1280.93,207.53a3.92,3.92 0 1 1 4,-3.84a3.95,3.95 0 0 1 -4,3.84zm1.37,-3.9a1.33,1.33 0 0 0 -1.3,-1.32a1.31,1.31 0 1 0 1.3,1.32z" class="cls-4"/>
    <path id="svg_15" fill="#fff" d="m1275.76,211.84a3.64,3.64 0 0 1 -0.28,0.41a1.29,1.29 0 0 1 -1.64,0.36a1.23,1.23 0 0 1 -0.6,-1.56a31.54,31.54 0 0 1 1.45,-2.91a1.24,1.24 0 0 1 2.14,0c0.54,0.94 1,1.92 1.46,2.91a1.23,1.23 0 0 1 -0.6,1.55a1.27,1.27 0 0 1 -1.64,-0.35c-0.05,-0.12 -0.18,-0.25 -0.29,-0.41z" class="cls-4"/>
   </g>
  </g>
 </g>
</svg>