<svg width="1368.59" height="77.34" xmlns="http://www.w3.org/2000/svg">

 <g>
  <title>Layer 1</title>
  <g data-name="Capa 2" id="Capa_2">
   <g id="diseño">
    <path id="svg_1" fill="#a49995" d="m43.67,76.34l0,-75.34l1294.66,0a19.28,19.28 0 0 1 19.26,19.27l0,36.81a19.28,19.28 0 0 1 -19.26,19.26l-1294.66,0z" class="cls-1"/>
    <path id="svg_2" d="m1338.33,1.5a18.79,18.79 0 0 1 18.76,18.77l0,36.81a18.79,18.79 0 0 1 -18.76,18.76l-1294.16,0l0,-74.34l1294.16,0m0,-1l-1295.16,0l0,76.34l1295.16,0a19.76,19.76 0 0 0 19.76,-19.76l0,-36.81a19.77,19.77 0 0 0 -19.76,-19.77z"/>
    <path id="svg_3" stroke-miterlimit="10" stroke="#000" fill="#fff" d="m1243,0.5l106.3,0a18.79,18.79 0 0 1 18.79,18.79l0,38.76a18.79,18.79 0 0 1 -18.79,18.79l-106.3,0" class="cls-2"/>
    <line id="svg_4" fill="#fff" y2="39.48" x2="1255.44" y1="39.48" x1="92.04" class="cls-3"/>
    <rect id="svg_5" fill="#87807e" stroke-miterlimit="10" stroke="#000" rx="3.5" height="7" width="1163.4" y="35.98" x="92.04" class="cls-4"/>
    <line id="svg_6" fill="#282828" y2="39.48" x2="272.79" y1="39.48" x1="92.04" class="cls-5"/>
    <path id="svg_7" fill="#282828" d="m272.25,43l-179.67,0c-0.3,0 -0.54,-1.57 -0.54,-3.5l0,0c0,-1.93 0.24,-3.5 0.54,-3.5l179.67,0c0.3,0 0.54,1.57 0.54,3.5l0,0c0,1.91 -0.24,3.5 -0.54,3.5z" class="cls-5"/>
    <path id="svg_8" fill="#282828" d="m100.6,76.84l-76.23,0a20,20 0 0 1 -20,-20l0,-36.34a20,20 0 0 1 20,-20l76.23,0l0,76.34z" class="cls-5"/>
    <text id="svg_9" x="1275.29004" y="68.1" font-weight="700" font-family="Ubuntu-Bold, Ubuntu" font-size="15px" class="cls-6">LLEGADA</text>
    <text id="svg_12" x="30.4" y="45.46" font-weight="700" font-family="Ubuntu-Bold, Ubuntu" font-size="15px" fill="#fff" class="cls-8">INICIO</text>
    <path id="svg_13" d="m1350.39,33.38a13.21,13.21 0 0 1 -5.45,-3.37a28.19,28.19 0 0 1 -3.78,-5.05l0.87,-0.87a0.62,0.62 0 0 0 0.1,-0.77c-0.09,-0.17 -0.2,-0.34 -0.3,-0.51a36.49,36.49 0 0 0 -5.33,-7.55a14.78,14.78 0 0 0 -4.49,-3.12l1.09,-1.09a0.63,0.63 0 0 1 0.39,-0.19a1.33,1.33 0 0 0 0.84,-0.38a13.72,13.72 0 0 0 1.31,-3.28a13.56,13.56 0 0 0 -3.28,1.31a1.39,1.39 0 0 0 -0.39,0.84a0.62,0.62 0 0 1 -0.18,0.39l-21.4,21.41l-21.39,-21.41a0.61,0.61 0 0 1 -0.18,-0.39a1.37,1.37 0 0 0 -0.39,-0.84a13.41,13.41 0 0 0 -3.28,-1.32a13.56,13.56 0 0 0 1.31,3.28a1.32,1.32 0 0 0 0.84,0.39a0.58,0.58 0 0 1 0.39,0.19l1.09,1.09a14.78,14.78 0 0 0 -4.49,3.12a37.13,37.13 0 0 0 -5.34,7.54l-0.3,0.52a0.64,0.64 0 0 0 0.11,0.77l0.87,0.87a27.76,27.76 0 0 1 -3.78,5a13.21,13.21 0 0 1 -5.45,3.37l-1.05,0.35l13.65,13.69l0.39,-0.13a14.49,14.49 0 0 0 6,-3.71a32.35,32.35 0 0 0 4.46,-6.09a0.64,0.64 0 0 0 -0.09,-0.78l-0.88,-0.88a34.25,34.25 0 0 1 5,-7a13.34,13.34 0 0 1 4.58,-3l6.69,6.7l-11,11l1.31,1.31l11,-11l11,11l1.31,-1.31l-11,-11l6.69,-6.69a13.2,13.2 0 0 1 4.58,3a34.18,34.18 0 0 1 5,7l-0.88,0.88a0.65,0.65 0 0 0 -0.09,0.79a32.67,32.67 0 0 0 4.46,6.09a14.59,14.59 0 0 0 6,3.71l0.39,0.12l13.65,-13.65l-1.18,-0.35zm-62,9.2a13.9,13.9 0 0 1 -1.73,1.47l-3.86,-3.86a20.37,20.37 0 0 0 3.41,-3.41l-4,-4a20,20 0 0 1 -3.41,3.41l4,4a20.41,20.41 0 0 1 -3.09,2l-4,-4a19.21,19.21 0 0 0 3.09,-2l-3.74,-3.74a14.68,14.68 0 0 0 1.72,-1.48a18.26,18.26 0 0 0 1.68,-1.94l3.75,3.75a19.7,19.7 0 0 0 2,-3.17l4.12,4.12a22.7,22.7 0 0 1 -1.86,2.77l3.82,3.82a19.25,19.25 0 0 1 -1.89,2.26l-0.01,0zm5.5,-18.8l3.53,3.52c-0.2,0.18 -0.39,0.35 -0.58,0.54a23.2,23.2 0 0 0 -2.69,3.3l-3.81,-3.81a20.65,20.65 0 0 0 -2.52,4.13l-4.19,-4.2a21,21 0 0 1 2.52,-4.11l4.19,4.19a21,21 0 0 1 3.55,-3.56l-4.18,-4.19a21,21 0 0 0 -3.56,3.55l-3.61,-3.61a22.89,22.89 0 0 1 2.68,-3.32l0.58,-0.53l3.91,3.91a20.89,20.89 0 0 1 4,-2.48l4.19,4.19a21.81,21.81 0 0 0 -4,2.48l-0.01,0zm32.72,7.36a23.2,23.2 0 0 0 -2.69,-3.3c-0.2,-0.19 -0.39,-0.36 -0.59,-0.53l3.53,-3.53a21.48,21.48 0 0 0 -4,-2.48l4.19,-4.18a21.24,21.24 0 0 1 4,2.47l3.9,-3.9c0.2,0.17 0.4,0.34 0.59,0.53a23,23 0 0 1 2.67,3.32l-3.61,3.61a21,21 0 0 0 -3.55,-3.56l-4.19,4.19a20.62,20.62 0 0 1 3.55,3.56l4.19,-4.19a21.08,21.08 0 0 1 2.53,4.12l-4.13,4.19a20.79,20.79 0 0 0 -2.53,-4.12l-3.86,3.8zm18.44,7l-4,4a20.5,20.5 0 0 1 -3.1,-2l4,-4a20,20 0 0 1 -3.41,-3.41l-4,4a20.37,20.37 0 0 0 3.41,3.41l-3.86,3.86a15.51,15.51 0 0 1 -1.73,-1.47a19.25,19.25 0 0 1 -1.93,-2.27l3.82,-3.82a21.61,21.61 0 0 1 -1.86,-2.77l4.12,-4.12a19.7,19.7 0 0 0 2,3.17l3.75,-3.75a20.87,20.87 0 0 0 1.74,2.03a14.68,14.68 0 0 0 1.72,1.48l-3.72,3.7a19.92,19.92 0 0 0 3.06,2l-0.01,-0.04z"/>
   </g>
  </g>
 </g>
</svg>