<svg xmlns="http://www.w3.org/2000/svg" xmlns:xlink="http://www.w3.org/1999/xlink" viewBox="0 0 1042.21 125.43"><defs><style>.cls-1,.cls-2{fill:none;}.cls-2{stroke:#e26e2b;stroke-miterlimit:10;stroke-width:2px;}.cls-2,.cls-3{opacity:0.8;}.cls-3{fill:url(#Motivo_nuevo_2);}</style><pattern id="Motivo_nuevo_2" data-name="Motivo nuevo 2" width="20" height="20" patternUnits="userSpaceOnUse" viewBox="0 0 20 20"><rect class="cls-1" width="20" height="20"/><line class="cls-2" x1="410.66" y1="9.34" x2="9.34" y2="410.66"/><line class="cls-2" x1="390.66" y1="9.34" x2="-10.66" y2="410.66"/><line class="cls-2" x1="370.66" y1="9.34" x2="-30.66" y2="410.66"/><line class="cls-2" x1="350.66" y1="9.34" x2="-50.66" y2="410.66"/><line class="cls-2" x1="330.66" y1="9.34" x2="-70.66" y2="410.66"/><line class="cls-2" x1="310.66" y1="9.34" x2="-90.66" y2="410.66"/><line class="cls-2" x1="290.66" y1="9.34" x2="-110.66" y2="410.66"/><line class="cls-2" x1="270.66" y1="9.34" x2="-130.66" y2="410.66"/><line class="cls-2" x1="250.66" y1="9.34" x2="-150.66" y2="410.66"/><line class="cls-2" x1="230.66" y1="9.34" x2="-170.66" y2="410.66"/><line class="cls-2" x1="210.66" y1="9.34" x2="-190.66" y2="410.66"/><line class="cls-2" x1="190.66" y1="9.34" x2="-210.66" y2="410.66"/><line class="cls-2" x1="170.66" y1="9.34" x2="-230.66" y2="410.66"/><line class="cls-2" x1="150.66" y1="9.34" x2="-250.66" y2="410.66"/><line class="cls-2" x1="130.66" y1="9.34" x2="-270.66" y2="410.66"/><line class="cls-2" x1="110.66" y1="9.34" x2="-290.66" y2="410.66"/><line class="cls-2" x1="90.66" y1="9.34" x2="-310.66" y2="410.66"/><line class="cls-2" x1="70.66" y1="9.34" x2="-330.66" y2="410.66"/><line class="cls-2" x1="50.66" y1="9.34" x2="-350.66" y2="410.66"/><line class="cls-2" x1="30.66" y1="9.34" x2="-370.66" y2="410.66"/><line class="cls-2" x1="10.66" y1="9.34" x2="-390.66" y2="410.66"/><line class="cls-2" x1="410.66" y1="-10.66" x2="9.34" y2="390.66"/><line class="cls-2" x1="390.66" y1="-10.66" x2="-10.66" y2="390.66"/><line class="cls-2" x1="370.66" y1="-10.66" x2="-30.66" y2="390.66"/><line class="cls-2" x1="350.66" y1="-10.66" x2="-50.66" y2="390.66"/><line class="cls-2" x1="330.66" y1="-10.66" x2="-70.66" y2="390.66"/><line class="cls-2" x1="310.66" y1="-10.66" x2="-90.66" y2="390.66"/><line class="cls-2" x1="290.66" y1="-10.66" x2="-110.66" y2="390.66"/><line class="cls-2" x1="270.66" y1="-10.66" x2="-130.66" y2="390.66"/><line class="cls-2" x1="250.66" y1="-10.66" x2="-150.66" y2="390.66"/><line class="cls-2" x1="230.66" y1="-10.66" x2="-170.66" y2="390.66"/><line class="cls-2" x1="210.66" y1="-10.66" x2="-190.66" y2="390.66"/><line class="cls-2" x1="190.66" y1="-10.66" x2="-210.66" y2="390.66"/><line class="cls-2" x1="170.66" y1="-10.66" x2="-230.66" y2="390.66"/><line class="cls-2" x1="150.66" y1="-10.66" x2="-250.66" y2="390.66"/><line class="cls-2" x1="130.66" y1="-10.66" x2="-270.66" y2="390.66"/><line class="cls-2" x1="110.66" y1="-10.66" x2="-290.66" y2="390.66"/><line class="cls-2" x1="90.66" y1="-10.66" x2="-310.66" y2="390.66"/><line class="cls-2" x1="70.66" y1="-10.66" x2="-330.66" y2="390.66"/><line class="cls-2" x1="50.66" y1="-10.66" x2="-350.66" y2="390.66"/><line class="cls-2" x1="30.66" y1="-10.66" x2="-370.66" y2="390.66"/><line class="cls-2" x1="10.66" y1="-10.66" x2="-390.66" y2="390.66"/><line class="cls-2" x1="410.66" y1="-30.66" x2="9.34" y2="370.66"/><line class="cls-2" x1="390.66" y1="-30.66" x2="-10.66" y2="370.66"/><line class="cls-2" x1="370.66" y1="-30.66" x2="-30.66" y2="370.66"/><line class="cls-2" x1="350.66" y1="-30.66" x2="-50.66" y2="370.66"/><line class="cls-2" x1="330.66" y1="-30.66" x2="-70.66" y2="370.66"/><line class="cls-2" x1="310.66" y1="-30.66" x2="-90.66" y2="370.66"/><line class="cls-2" x1="290.66" y1="-30.66" x2="-110.66" y2="370.66"/><line class="cls-2" x1="270.66" y1="-30.66" x2="-130.66" y2="370.66"/><line class="cls-2" x1="250.66" y1="-30.66" x2="-150.66" y2="370.66"/><line class="cls-2" x1="230.66" y1="-30.66" x2="-170.66" y2="370.66"/><line class="cls-2" x1="210.66" y1="-30.66" x2="-190.66" y2="370.66"/><line class="cls-2" x1="190.66" y1="-30.66" x2="-210.66" y2="370.66"/><line class="cls-2" x1="170.66" y1="-30.66" x2="-230.66" y2="370.66"/><line class="cls-2" x1="150.66" y1="-30.66" x2="-250.66" y2="370.66"/><line class="cls-2" x1="130.66" y1="-30.66" x2="-270.66" y2="370.66"/><line class="cls-2" x1="110.66" y1="-30.66" x2="-290.66" y2="370.66"/><line class="cls-2" x1="90.66" y1="-30.66" x2="-310.66" y2="370.66"/><line class="cls-2" x1="70.66" y1="-30.66" x2="-330.66" y2="370.66"/><line class="cls-2" x1="50.66" y1="-30.66" x2="-350.66" y2="370.66"/><line class="cls-2" x1="30.66" y1="-30.66" x2="-370.66" y2="370.66"/><line class="cls-2" x1="10.66" y1="-30.66" x2="-390.66" y2="370.66"/><line class="cls-2" x1="410.66" y1="-50.66" x2="9.34" y2="350.66"/><line class="cls-2" x1="390.66" y1="-50.66" x2="-10.66" y2="350.66"/><line class="cls-2" x1="370.66" y1="-50.66" x2="-30.66" y2="350.66"/><line class="cls-2" x1="350.66" y1="-50.66" x2="-50.66" y2="350.66"/><line class="cls-2" x1="330.66" y1="-50.66" x2="-70.66" y2="350.66"/><line class="cls-2" x1="310.66" y1="-50.66" x2="-90.66" y2="350.66"/><line class="cls-2" x1="290.66" y1="-50.66" x2="-110.66" y2="350.66"/><line class="cls-2" x1="270.66" y1="-50.66" x2="-130.66" y2="350.66"/><line class="cls-2" x1="250.66" y1="-50.66" x2="-150.66" y2="350.66"/><line class="cls-2" x1="230.66" y1="-50.66" x2="-170.66" y2="350.66"/><line class="cls-2" x1="210.66" y1="-50.66" x2="-190.66" y2="350.66"/><line class="cls-2" x1="190.66" y1="-50.66" x2="-210.66" y2="350.66"/><line class="cls-2" x1="170.66" y1="-50.66" x2="-230.66" y2="350.66"/><line class="cls-2" x1="150.66" y1="-50.66" x2="-250.66" y2="350.66"/><line class="cls-2" x1="130.66" y1="-50.66" x2="-270.66" y2="350.66"/><line class="cls-2" x1="110.66" y1="-50.66" x2="-290.66" y2="350.66"/><line class="cls-2" x1="90.66" y1="-50.66" x2="-310.66" y2="350.66"/><line class="cls-2" x1="70.66" y1="-50.66" x2="-330.66" y2="350.66"/><line class="cls-2" x1="50.66" y1="-50.66" x2="-350.66" y2="350.66"/><line class="cls-2" x1="30.66" y1="-50.66" x2="-370.66" y2="350.66"/><line class="cls-2" x1="10.66" y1="-50.66" x2="-390.66" y2="350.66"/><line class="cls-2" x1="410.66" y1="-70.66" x2="9.34" y2="330.66"/><line class="cls-2" x1="390.66" y1="-70.66" x2="-10.66" y2="330.66"/><line class="cls-2" x1="370.66" y1="-70.66" x2="-30.66" y2="330.66"/><line class="cls-2" x1="350.66" y1="-70.66" x2="-50.66" y2="330.66"/><line class="cls-2" x1="330.66" y1="-70.66" x2="-70.66" y2="330.66"/><line class="cls-2" x1="310.66" y1="-70.66" x2="-90.66" y2="330.66"/><line class="cls-2" x1="290.66" y1="-70.66" x2="-110.66" y2="330.66"/><line class="cls-2" x1="270.66" y1="-70.66" x2="-130.66" y2="330.66"/><line class="cls-2" x1="250.66" y1="-70.66" x2="-150.66" y2="330.66"/><line class="cls-2" x1="230.66" y1="-70.66" x2="-170.66" y2="330.66"/><line class="cls-2" x1="210.66" y1="-70.66" x2="-190.66" y2="330.66"/><line class="cls-2" x1="190.66" y1="-70.66" x2="-210.66" y2="330.66"/><line class="cls-2" x1="170.66" y1="-70.66" x2="-230.66" y2="330.66"/><line class="cls-2" x1="150.66" y1="-70.66" x2="-250.66" y2="330.66"/><line class="cls-2" x1="130.66" y1="-70.66" x2="-270.66" y2="330.66"/><line class="cls-2" x1="110.66" y1="-70.66" x2="-290.66" y2="330.66"/><line class="cls-2" x1="90.66" y1="-70.66" x2="-310.66" y2="330.66"/><line class="cls-2" x1="70.66" y1="-70.66" x2="-330.66" y2="330.66"/><line class="cls-2" x1="50.66" y1="-70.66" x2="-350.66" y2="330.66"/><line class="cls-2" x1="30.66" y1="-70.66" x2="-370.66" y2="330.66"/><line class="cls-2" x1="10.66" y1="-70.66" x2="-390.66" y2="330.66"/><line class="cls-2" x1="410.66" y1="-90.66" x2="9.34" y2="310.66"/><line class="cls-2" x1="390.66" y1="-90.66" x2="-10.66" y2="310.66"/><line class="cls-2" x1="370.66" y1="-90.66" x2="-30.66" y2="310.66"/><line class="cls-2" x1="350.66" y1="-90.66" x2="-50.66" y2="310.66"/><line class="cls-2" x1="330.66" y1="-90.66" x2="-70.66" y2="310.66"/><line class="cls-2" x1="310.66" y1="-90.66" x2="-90.66" y2="310.66"/><line class="cls-2" x1="290.66" y1="-90.66" x2="-110.66" y2="310.66"/><line class="cls-2" x1="270.66" y1="-90.66" x2="-130.66" y2="310.66"/><line class="cls-2" x1="250.66" y1="-90.66" x2="-150.66" y2="310.66"/><line class="cls-2" x1="230.66" y1="-90.66" x2="-170.66" y2="310.66"/><line class="cls-2" x1="210.66" y1="-90.66" x2="-190.66" y2="310.66"/><line class="cls-2" x1="190.66" y1="-90.66" x2="-210.66" y2="310.66"/><line class="cls-2" x1="170.66" y1="-90.66" x2="-230.66" y2="310.66"/><line class="cls-2" x1="150.66" y1="-90.66" x2="-250.66" y2="310.66"/><line class="cls-2" x1="130.66" y1="-90.66" x2="-270.66" y2="310.66"/><line class="cls-2" x1="110.66" y1="-90.66" x2="-290.66" y2="310.66"/><line class="cls-2" x1="90.66" y1="-90.66" x2="-310.66" y2="310.66"/><line class="cls-2" x1="70.66" y1="-90.66" x2="-330.66" y2="310.66"/><line class="cls-2" x1="50.66" y1="-90.66" x2="-350.66" y2="310.66"/><line class="cls-2" x1="30.66" y1="-90.66" x2="-370.66" y2="310.66"/><line class="cls-2" x1="10.66" y1="-90.66" x2="-390.66" y2="310.66"/><line class="cls-2" x1="410.66" y1="-110.66" x2="9.34" y2="290.66"/><line class="cls-2" x1="390.66" y1="-110.66" x2="-10.66" y2="290.66"/><line class="cls-2" x1="370.66" y1="-110.66" x2="-30.66" y2="290.66"/><line class="cls-2" x1="350.66" y1="-110.66" x2="-50.66" y2="290.66"/><line class="cls-2" x1="330.66" y1="-110.66" x2="-70.66" y2="290.66"/><line class="cls-2" x1="310.66" y1="-110.66" x2="-90.66" y2="290.66"/><line class="cls-2" x1="290.66" y1="-110.66" x2="-110.66" y2="290.66"/><line class="cls-2" x1="270.66" y1="-110.66" x2="-130.66" y2="290.66"/><line class="cls-2" x1="250.66" y1="-110.66" x2="-150.66" y2="290.66"/><line class="cls-2" x1="230.66" y1="-110.66" x2="-170.66" y2="290.66"/><line class="cls-2" x1="210.66" y1="-110.66" x2="-190.66" y2="290.66"/><line class="cls-2" x1="190.66" y1="-110.66" x2="-210.66" y2="290.66"/><line class="cls-2" x1="170.66" y1="-110.66" x2="-230.66" y2="290.66"/><line class="cls-2" x1="150.66" y1="-110.66" x2="-250.66" y2="290.66"/><line class="cls-2" x1="130.66" y1="-110.66" x2="-270.66" y2="290.66"/><line class="cls-2" x1="110.66" y1="-110.66" x2="-290.66" y2="290.66"/><line class="cls-2" x1="90.66" y1="-110.66" x2="-310.66" y2="290.66"/><line class="cls-2" x1="70.66" y1="-110.66" x2="-330.66" y2="290.66"/><line class="cls-2" x1="50.66" y1="-110.66" x2="-350.66" y2="290.66"/><line class="cls-2" x1="30.66" y1="-110.66" x2="-370.66" y2="290.66"/><line class="cls-2" x1="10.66" y1="-110.66" x2="-390.66" y2="290.66"/><line class="cls-2" x1="410.66" y1="-130.66" x2="9.34" y2="270.66"/><line class="cls-2" x1="390.66" y1="-130.66" x2="-10.66" y2="270.66"/><line class="cls-2" x1="370.66" y1="-130.66" x2="-30.66" y2="270.66"/><line class="cls-2" x1="350.66" y1="-130.66" x2="-50.66" y2="270.66"/><line class="cls-2" x1="330.66" y1="-130.66" x2="-70.66" y2="270.66"/><line class="cls-2" x1="310.66" y1="-130.66" x2="-90.66" y2="270.66"/><line class="cls-2" x1="290.66" y1="-130.66" x2="-110.66" y2="270.66"/><line class="cls-2" x1="270.66" y1="-130.66" x2="-130.66" y2="270.66"/><line class="cls-2" x1="250.66" y1="-130.66" x2="-150.66" y2="270.66"/><line class="cls-2" x1="230.66" y1="-130.66" x2="-170.66" y2="270.66"/><line class="cls-2" x1="210.66" y1="-130.66" x2="-190.66" y2="270.66"/><line class="cls-2" x1="190.66" y1="-130.66" x2="-210.66" y2="270.66"/><line class="cls-2" x1="170.66" y1="-130.66" x2="-230.66" y2="270.66"/><line class="cls-2" x1="150.66" y1="-130.66" x2="-250.66" y2="270.66"/><line class="cls-2" x1="130.66" y1="-130.66" x2="-270.66" y2="270.66"/><line class="cls-2" x1="110.66" y1="-130.66" x2="-290.66" y2="270.66"/><line class="cls-2" x1="90.66" y1="-130.66" x2="-310.66" y2="270.66"/><line class="cls-2" x1="70.66" y1="-130.66" x2="-330.66" y2="270.66"/><line class="cls-2" x1="50.66" y1="-130.66" x2="-350.66" y2="270.66"/><line class="cls-2" x1="30.66" y1="-130.66" x2="-370.66" y2="270.66"/><line class="cls-2" x1="10.66" y1="-130.66" x2="-390.66" y2="270.66"/><line class="cls-2" x1="410.66" y1="-150.66" x2="9.34" y2="250.66"/><line class="cls-2" x1="390.66" y1="-150.66" x2="-10.66" y2="250.66"/><line class="cls-2" x1="370.66" y1="-150.66" x2="-30.66" y2="250.66"/><line class="cls-2" x1="350.66" y1="-150.66" x2="-50.66" y2="250.66"/><line class="cls-2" x1="330.66" y1="-150.66" x2="-70.66" y2="250.66"/><line class="cls-2" x1="310.66" y1="-150.66" x2="-90.66" y2="250.66"/><line class="cls-2" x1="290.66" y1="-150.66" x2="-110.66" y2="250.66"/><line class="cls-2" x1="270.66" y1="-150.66" x2="-130.66" y2="250.66"/><line class="cls-2" x1="250.66" y1="-150.66" x2="-150.66" y2="250.66"/><line class="cls-2" x1="230.66" y1="-150.66" x2="-170.66" y2="250.66"/><line class="cls-2" x1="210.66" y1="-150.66" x2="-190.66" y2="250.66"/><line class="cls-2" x1="190.66" y1="-150.66" x2="-210.66" y2="250.66"/><line class="cls-2" x1="170.66" y1="-150.66" x2="-230.66" y2="250.66"/><line class="cls-2" x1="150.66" y1="-150.66" x2="-250.66" y2="250.66"/><line class="cls-2" x1="130.66" y1="-150.66" x2="-270.66" y2="250.66"/><line class="cls-2" x1="110.66" y1="-150.66" x2="-290.66" y2="250.66"/><line class="cls-2" x1="90.66" y1="-150.66" x2="-310.66" y2="250.66"/><line class="cls-2" x1="70.66" y1="-150.66" x2="-330.66" y2="250.66"/><line class="cls-2" x1="50.66" y1="-150.66" x2="-350.66" y2="250.66"/><line class="cls-2" x1="30.66" y1="-150.66" x2="-370.66" y2="250.66"/><line class="cls-2" x1="10.66" y1="-150.66" x2="-390.66" y2="250.66"/><line class="cls-2" x1="410.66" y1="-170.66" x2="9.34" y2="230.66"/><line class="cls-2" x1="390.66" y1="-170.66" x2="-10.66" y2="230.66"/><line class="cls-2" x1="370.66" y1="-170.66" x2="-30.66" y2="230.66"/><line class="cls-2" x1="350.66" y1="-170.66" x2="-50.66" y2="230.66"/><line class="cls-2" x1="330.66" y1="-170.66" x2="-70.66" y2="230.66"/><line class="cls-2" x1="310.66" y1="-170.66" x2="-90.66" y2="230.66"/><line class="cls-2" x1="290.66" y1="-170.66" x2="-110.66" y2="230.66"/><line class="cls-2" x1="270.66" y1="-170.66" x2="-130.66" y2="230.66"/><line class="cls-2" x1="250.66" y1="-170.66" x2="-150.66" y2="230.66"/><line class="cls-2" x1="230.66" y1="-170.66" x2="-170.66" y2="230.66"/><line class="cls-2" x1="210.66" y1="-170.66" x2="-190.66" y2="230.66"/><line class="cls-2" x1="190.66" y1="-170.66" x2="-210.66" y2="230.66"/><line class="cls-2" x1="170.66" y1="-170.66" x2="-230.66" y2="230.66"/><line class="cls-2" x1="150.66" y1="-170.66" x2="-250.66" y2="230.66"/><line class="cls-2" x1="130.66" y1="-170.66" x2="-270.66" y2="230.66"/><line class="cls-2" x1="110.66" y1="-170.66" x2="-290.66" y2="230.66"/><line class="cls-2" x1="90.66" y1="-170.66" x2="-310.66" y2="230.66"/><line class="cls-2" x1="70.66" y1="-170.66" x2="-330.66" y2="230.66"/><line class="cls-2" x1="50.66" y1="-170.66" x2="-350.66" y2="230.66"/><line class="cls-2" x1="30.66" y1="-170.66" x2="-370.66" y2="230.66"/><line class="cls-2" x1="10.66" y1="-170.66" x2="-390.66" y2="230.66"/><line class="cls-2" x1="410.66" y1="-190.66" x2="9.34" y2="210.66"/><line class="cls-2" x1="390.66" y1="-190.66" x2="-10.66" y2="210.66"/><line class="cls-2" x1="370.66" y1="-190.66" x2="-30.66" y2="210.66"/><line class="cls-2" x1="350.66" y1="-190.66" x2="-50.66" y2="210.66"/><line class="cls-2" x1="330.66" y1="-190.66" x2="-70.66" y2="210.66"/><line class="cls-2" x1="310.66" y1="-190.66" x2="-90.66" y2="210.66"/><line class="cls-2" x1="290.66" y1="-190.66" x2="-110.66" y2="210.66"/><line class="cls-2" x1="270.66" y1="-190.66" x2="-130.66" y2="210.66"/><line class="cls-2" x1="250.66" y1="-190.66" x2="-150.66" y2="210.66"/><line class="cls-2" x1="230.66" y1="-190.66" x2="-170.66" y2="210.66"/><line class="cls-2" x1="210.66" y1="-190.66" x2="-190.66" y2="210.66"/><line class="cls-2" x1="190.66" y1="-190.66" x2="-210.66" y2="210.66"/><line class="cls-2" x1="170.66" y1="-190.66" x2="-230.66" y2="210.66"/><line class="cls-2" x1="150.66" y1="-190.66" x2="-250.66" y2="210.66"/><line class="cls-2" x1="130.66" y1="-190.66" x2="-270.66" y2="210.66"/><line class="cls-2" x1="110.66" y1="-190.66" x2="-290.66" y2="210.66"/><line class="cls-2" x1="90.66" y1="-190.66" x2="-310.66" y2="210.66"/><line class="cls-2" x1="70.66" y1="-190.66" x2="-330.66" y2="210.66"/><line class="cls-2" x1="50.66" y1="-190.66" x2="-350.66" y2="210.66"/><line class="cls-2" x1="30.66" y1="-190.66" x2="-370.66" y2="210.66"/><line class="cls-2" x1="10.66" y1="-190.66" x2="-390.66" y2="210.66"/><line class="cls-2" x1="410.66" y1="-210.66" x2="9.34" y2="190.66"/><line class="cls-2" x1="390.66" y1="-210.66" x2="-10.66" y2="190.66"/><line class="cls-2" x1="370.66" y1="-210.66" x2="-30.66" y2="190.66"/><line class="cls-2" x1="350.66" y1="-210.66" x2="-50.66" y2="190.66"/><line class="cls-2" x1="330.66" y1="-210.66" x2="-70.66" y2="190.66"/><line class="cls-2" x1="310.66" y1="-210.66" x2="-90.66" y2="190.66"/><line class="cls-2" x1="290.66" y1="-210.66" x2="-110.66" y2="190.66"/><line class="cls-2" x1="270.66" y1="-210.66" x2="-130.66" y2="190.66"/><line class="cls-2" x1="250.66" y1="-210.66" x2="-150.66" y2="190.66"/><line class="cls-2" x1="230.66" y1="-210.66" x2="-170.66" y2="190.66"/><line class="cls-2" x1="210.66" y1="-210.66" x2="-190.66" y2="190.66"/><line class="cls-2" x1="190.66" y1="-210.66" x2="-210.66" y2="190.66"/><line class="cls-2" x1="170.66" y1="-210.66" x2="-230.66" y2="190.66"/><line class="cls-2" x1="150.66" y1="-210.66" x2="-250.66" y2="190.66"/><line class="cls-2" x1="130.66" y1="-210.66" x2="-270.66" y2="190.66"/><line class="cls-2" x1="110.66" y1="-210.66" x2="-290.66" y2="190.66"/><line class="cls-2" x1="90.66" y1="-210.66" x2="-310.66" y2="190.66"/><line class="cls-2" x1="70.66" y1="-210.66" x2="-330.66" y2="190.66"/><line class="cls-2" x1="50.66" y1="-210.66" x2="-350.66" y2="190.66"/><line class="cls-2" x1="30.66" y1="-210.66" x2="-370.66" y2="190.66"/><line class="cls-2" x1="10.66" y1="-210.66" x2="-390.66" y2="190.66"/><line class="cls-2" x1="410.66" y1="-230.66" x2="9.34" y2="170.66"/><line class="cls-2" x1="390.66" y1="-230.66" x2="-10.66" y2="170.66"/><line class="cls-2" x1="370.66" y1="-230.66" x2="-30.66" y2="170.66"/><line class="cls-2" x1="350.66" y1="-230.66" x2="-50.66" y2="170.66"/><line class="cls-2" x1="330.66" y1="-230.66" x2="-70.66" y2="170.66"/><line class="cls-2" x1="310.66" y1="-230.66" x2="-90.66" y2="170.66"/><line class="cls-2" x1="290.66" y1="-230.66" x2="-110.66" y2="170.66"/><line class="cls-2" x1="270.66" y1="-230.66" x2="-130.66" y2="170.66"/><line class="cls-2" x1="250.66" y1="-230.66" x2="-150.66" y2="170.66"/><line class="cls-2" x1="230.66" y1="-230.66" x2="-170.66" y2="170.66"/><line class="cls-2" x1="210.66" y1="-230.66" x2="-190.66" y2="170.66"/><line class="cls-2" x1="190.66" y1="-230.66" x2="-210.66" y2="170.66"/><line class="cls-2" x1="170.66" y1="-230.66" x2="-230.66" y2="170.66"/><line class="cls-2" x1="150.66" y1="-230.66" x2="-250.66" y2="170.66"/><line class="cls-2" x1="130.66" y1="-230.66" x2="-270.66" y2="170.66"/><line class="cls-2" x1="110.66" y1="-230.66" x2="-290.66" y2="170.66"/><line class="cls-2" x1="90.66" y1="-230.66" x2="-310.66" y2="170.66"/><line class="cls-2" x1="70.66" y1="-230.66" x2="-330.66" y2="170.66"/><line class="cls-2" x1="50.66" y1="-230.66" x2="-350.66" y2="170.66"/><line class="cls-2" x1="30.66" y1="-230.66" x2="-370.66" y2="170.66"/><line class="cls-2" x1="10.66" y1="-230.66" x2="-390.66" y2="170.66"/><line class="cls-2" x1="410.66" y1="-250.66" x2="9.34" y2="150.66"/><line class="cls-2" x1="390.66" y1="-250.66" x2="-10.66" y2="150.66"/><line class="cls-2" x1="370.66" y1="-250.66" x2="-30.66" y2="150.66"/><line class="cls-2" x1="350.66" y1="-250.66" x2="-50.66" y2="150.66"/><line class="cls-2" x1="330.66" y1="-250.66" x2="-70.66" y2="150.66"/><line class="cls-2" x1="310.66" y1="-250.66" x2="-90.66" y2="150.66"/><line class="cls-2" x1="290.66" y1="-250.66" x2="-110.66" y2="150.66"/><line class="cls-2" x1="270.66" y1="-250.66" x2="-130.66" y2="150.66"/><line class="cls-2" x1="250.66" y1="-250.66" x2="-150.66" y2="150.66"/><line class="cls-2" x1="230.66" y1="-250.66" x2="-170.66" y2="150.66"/><line class="cls-2" x1="210.66" y1="-250.66" x2="-190.66" y2="150.66"/><line class="cls-2" x1="190.66" y1="-250.66" x2="-210.66" y2="150.66"/><line class="cls-2" x1="170.66" y1="-250.66" x2="-230.66" y2="150.66"/><line class="cls-2" x1="150.66" y1="-250.66" x2="-250.66" y2="150.66"/><line class="cls-2" x1="130.66" y1="-250.66" x2="-270.66" y2="150.66"/><line class="cls-2" x1="110.66" y1="-250.66" x2="-290.66" y2="150.66"/><line class="cls-2" x1="90.66" y1="-250.66" x2="-310.66" y2="150.66"/><line class="cls-2" x1="70.66" y1="-250.66" x2="-330.66" y2="150.66"/><line class="cls-2" x1="50.66" y1="-250.66" x2="-350.66" y2="150.66"/><line class="cls-2" x1="30.66" y1="-250.66" x2="-370.66" y2="150.66"/><line class="cls-2" x1="10.66" y1="-250.66" x2="-390.66" y2="150.66"/><line class="cls-2" x1="410.66" y1="-270.66" x2="9.34" y2="130.66"/><line class="cls-2" x1="390.66" y1="-270.66" x2="-10.66" y2="130.66"/><line class="cls-2" x1="370.66" y1="-270.66" x2="-30.66" y2="130.66"/><line class="cls-2" x1="350.66" y1="-270.66" x2="-50.66" y2="130.66"/><line class="cls-2" x1="330.66" y1="-270.66" x2="-70.66" y2="130.66"/><line class="cls-2" x1="310.66" y1="-270.66" x2="-90.66" y2="130.66"/><line class="cls-2" x1="290.66" y1="-270.66" x2="-110.66" y2="130.66"/><line class="cls-2" x1="270.66" y1="-270.66" x2="-130.66" y2="130.66"/><line class="cls-2" x1="250.66" y1="-270.66" x2="-150.66" y2="130.66"/><line class="cls-2" x1="230.66" y1="-270.66" x2="-170.66" y2="130.66"/><line class="cls-2" x1="210.66" y1="-270.66" x2="-190.66" y2="130.66"/><line class="cls-2" x1="190.66" y1="-270.66" x2="-210.66" y2="130.66"/><line class="cls-2" x1="170.66" y1="-270.66" x2="-230.66" y2="130.66"/><line class="cls-2" x1="150.66" y1="-270.66" x2="-250.66" y2="130.66"/><line class="cls-2" x1="130.66" y1="-270.66" x2="-270.66" y2="130.66"/><line class="cls-2" x1="110.66" y1="-270.66" x2="-290.66" y2="130.66"/><line class="cls-2" x1="90.66" y1="-270.66" x2="-310.66" y2="130.66"/><line class="cls-2" x1="70.66" y1="-270.66" x2="-330.66" y2="130.66"/><line class="cls-2" x1="50.66" y1="-270.66" x2="-350.66" y2="130.66"/><line class="cls-2" x1="30.66" y1="-270.66" x2="-370.66" y2="130.66"/><line class="cls-2" x1="10.66" y1="-270.66" x2="-390.66" y2="130.66"/><line class="cls-2" x1="410.66" y1="-290.66" x2="9.34" y2="110.66"/><line class="cls-2" x1="390.66" y1="-290.66" x2="-10.66" y2="110.66"/><line class="cls-2" x1="370.66" y1="-290.66" x2="-30.66" y2="110.66"/><line class="cls-2" x1="350.66" y1="-290.66" x2="-50.66" y2="110.66"/><line class="cls-2" x1="330.66" y1="-290.66" x2="-70.66" y2="110.66"/><line class="cls-2" x1="310.66" y1="-290.66" x2="-90.66" y2="110.66"/><line class="cls-2" x1="290.66" y1="-290.66" x2="-110.66" y2="110.66"/><line class="cls-2" x1="270.66" y1="-290.66" x2="-130.66" y2="110.66"/><line class="cls-2" x1="250.66" y1="-290.66" x2="-150.66" y2="110.66"/><line class="cls-2" x1="230.66" y1="-290.66" x2="-170.66" y2="110.66"/><line class="cls-2" x1="210.66" y1="-290.66" x2="-190.66" y2="110.66"/><line class="cls-2" x1="190.66" y1="-290.66" x2="-210.66" y2="110.66"/><line class="cls-2" x1="170.66" y1="-290.66" x2="-230.66" y2="110.66"/><line class="cls-2" x1="150.66" y1="-290.66" x2="-250.66" y2="110.66"/><line class="cls-2" x1="130.66" y1="-290.66" x2="-270.66" y2="110.66"/><line class="cls-2" x1="110.66" y1="-290.66" x2="-290.66" y2="110.66"/><line class="cls-2" x1="90.66" y1="-290.66" x2="-310.66" y2="110.66"/><line class="cls-2" x1="70.66" y1="-290.66" x2="-330.66" y2="110.66"/><line class="cls-2" x1="50.66" y1="-290.66" x2="-350.66" y2="110.66"/><line class="cls-2" x1="30.66" y1="-290.66" x2="-370.66" y2="110.66"/><line class="cls-2" x1="10.66" y1="-290.66" x2="-390.66" y2="110.66"/><line class="cls-2" x1="410.66" y1="-310.66" x2="9.34" y2="90.66"/><line class="cls-2" x1="390.66" y1="-310.66" x2="-10.66" y2="90.66"/><line class="cls-2" x1="370.66" y1="-310.66" x2="-30.66" y2="90.66"/><line class="cls-2" x1="350.66" y1="-310.66" x2="-50.66" y2="90.66"/><line class="cls-2" x1="330.66" y1="-310.66" x2="-70.66" y2="90.66"/><line class="cls-2" x1="310.66" y1="-310.66" x2="-90.66" y2="90.66"/><line class="cls-2" x1="290.66" y1="-310.66" x2="-110.66" y2="90.66"/><line class="cls-2" x1="270.66" y1="-310.66" x2="-130.66" y2="90.66"/><line class="cls-2" x1="250.66" y1="-310.66" x2="-150.66" y2="90.66"/><line class="cls-2" x1="230.66" y1="-310.66" x2="-170.66" y2="90.66"/><line class="cls-2" x1="210.66" y1="-310.66" x2="-190.66" y2="90.66"/><line class="cls-2" x1="190.66" y1="-310.66" x2="-210.66" y2="90.66"/><line class="cls-2" x1="170.66" y1="-310.66" x2="-230.66" y2="90.66"/><line class="cls-2" x1="150.66" y1="-310.66" x2="-250.66" y2="90.66"/><line class="cls-2" x1="130.66" y1="-310.66" x2="-270.66" y2="90.66"/><line class="cls-2" x1="110.66" y1="-310.66" x2="-290.66" y2="90.66"/><line class="cls-2" x1="90.66" y1="-310.66" x2="-310.66" y2="90.66"/><line class="cls-2" x1="70.66" y1="-310.66" x2="-330.66" y2="90.66"/><line class="cls-2" x1="50.66" y1="-310.66" x2="-350.66" y2="90.66"/><line class="cls-2" x1="30.66" y1="-310.66" x2="-370.66" y2="90.66"/><line class="cls-2" x1="10.66" y1="-310.66" x2="-390.66" y2="90.66"/><line class="cls-2" x1="410.66" y1="-330.66" x2="9.34" y2="70.66"/><line class="cls-2" x1="390.66" y1="-330.66" x2="-10.66" y2="70.66"/><line class="cls-2" x1="370.66" y1="-330.66" x2="-30.66" y2="70.66"/><line class="cls-2" x1="350.66" y1="-330.66" x2="-50.66" y2="70.66"/><line class="cls-2" x1="330.66" y1="-330.66" x2="-70.66" y2="70.66"/><line class="cls-2" x1="310.66" y1="-330.66" x2="-90.66" y2="70.66"/><line class="cls-2" x1="290.66" y1="-330.66" x2="-110.66" y2="70.66"/><line class="cls-2" x1="270.66" y1="-330.66" x2="-130.66" y2="70.66"/><line class="cls-2" x1="250.66" y1="-330.66" x2="-150.66" y2="70.66"/><line class="cls-2" x1="230.66" y1="-330.66" x2="-170.66" y2="70.66"/><line class="cls-2" x1="210.66" y1="-330.66" x2="-190.66" y2="70.66"/><line class="cls-2" x1="190.66" y1="-330.66" x2="-210.66" y2="70.66"/><line class="cls-2" x1="170.66" y1="-330.66" x2="-230.66" y2="70.66"/><line class="cls-2" x1="150.66" y1="-330.66" x2="-250.66" y2="70.66"/><line class="cls-2" x1="130.66" y1="-330.66" x2="-270.66" y2="70.66"/><line class="cls-2" x1="110.66" y1="-330.66" x2="-290.66" y2="70.66"/><line class="cls-2" x1="90.66" y1="-330.66" x2="-310.66" y2="70.66"/><line class="cls-2" x1="70.66" y1="-330.66" x2="-330.66" y2="70.66"/><line class="cls-2" x1="50.66" y1="-330.66" x2="-350.66" y2="70.66"/><line class="cls-2" x1="30.66" y1="-330.66" x2="-370.66" y2="70.66"/><line class="cls-2" x1="10.66" y1="-330.66" x2="-390.66" y2="70.66"/><line class="cls-2" x1="410.66" y1="-350.66" x2="9.34" y2="50.66"/><line class="cls-2" x1="390.66" y1="-350.66" x2="-10.66" y2="50.66"/><line class="cls-2" x1="370.66" y1="-350.66" x2="-30.66" y2="50.66"/><line class="cls-2" x1="350.66" y1="-350.66" x2="-50.66" y2="50.66"/><line class="cls-2" x1="330.66" y1="-350.66" x2="-70.66" y2="50.66"/><line class="cls-2" x1="310.66" y1="-350.66" x2="-90.66" y2="50.66"/><line class="cls-2" x1="290.66" y1="-350.66" x2="-110.66" y2="50.66"/><line class="cls-2" x1="270.66" y1="-350.66" x2="-130.66" y2="50.66"/><line class="cls-2" x1="250.66" y1="-350.66" x2="-150.66" y2="50.66"/><line class="cls-2" x1="230.66" y1="-350.66" x2="-170.66" y2="50.66"/><line class="cls-2" x1="210.66" y1="-350.66" x2="-190.66" y2="50.66"/><line class="cls-2" x1="190.66" y1="-350.66" x2="-210.66" y2="50.66"/><line class="cls-2" x1="170.66" y1="-350.66" x2="-230.66" y2="50.66"/><line class="cls-2" x1="150.66" y1="-350.66" x2="-250.66" y2="50.66"/><line class="cls-2" x1="130.66" y1="-350.66" x2="-270.66" y2="50.66"/><line class="cls-2" x1="110.66" y1="-350.66" x2="-290.66" y2="50.66"/><line class="cls-2" x1="90.66" y1="-350.66" x2="-310.66" y2="50.66"/><line class="cls-2" x1="70.66" y1="-350.66" x2="-330.66" y2="50.66"/><line class="cls-2" x1="50.66" y1="-350.66" x2="-350.66" y2="50.66"/><line class="cls-2" x1="30.66" y1="-350.66" x2="-370.66" y2="50.66"/><line class="cls-2" x1="10.66" y1="-350.66" x2="-390.66" y2="50.66"/><line class="cls-2" x1="410.66" y1="-370.66" x2="9.34" y2="30.66"/><line class="cls-2" x1="390.66" y1="-370.66" x2="-10.66" y2="30.66"/><line class="cls-2" x1="370.66" y1="-370.66" x2="-30.66" y2="30.66"/><line class="cls-2" x1="350.66" y1="-370.66" x2="-50.66" y2="30.66"/><line class="cls-2" x1="330.66" y1="-370.66" x2="-70.66" y2="30.66"/><line class="cls-2" x1="310.66" y1="-370.66" x2="-90.66" y2="30.66"/><line class="cls-2" x1="290.66" y1="-370.66" x2="-110.66" y2="30.66"/><line class="cls-2" x1="270.66" y1="-370.66" x2="-130.66" y2="30.66"/><line class="cls-2" x1="250.66" y1="-370.66" x2="-150.66" y2="30.66"/><line class="cls-2" x1="230.66" y1="-370.66" x2="-170.66" y2="30.66"/><line class="cls-2" x1="210.66" y1="-370.66" x2="-190.66" y2="30.66"/><line class="cls-2" x1="190.66" y1="-370.66" x2="-210.66" y2="30.66"/><line class="cls-2" x1="170.66" y1="-370.66" x2="-230.66" y2="30.66"/><line class="cls-2" x1="150.66" y1="-370.66" x2="-250.66" y2="30.66"/><line class="cls-2" x1="130.66" y1="-370.66" x2="-270.66" y2="30.66"/><line class="cls-2" x1="110.66" y1="-370.66" x2="-290.66" y2="30.66"/><line class="cls-2" x1="90.66" y1="-370.66" x2="-310.66" y2="30.66"/><line class="cls-2" x1="70.66" y1="-370.66" x2="-330.66" y2="30.66"/><line class="cls-2" x1="50.66" y1="-370.66" x2="-350.66" y2="30.66"/><line class="cls-2" x1="30.66" y1="-370.66" x2="-370.66" y2="30.66"/><line class="cls-2" x1="10.66" y1="-370.66" x2="-390.66" y2="30.66"/><line class="cls-2" x1="410.66" y1="-390.66" x2="9.34" y2="10.66"/><line class="cls-2" x1="390.66" y1="-390.66" x2="-10.66" y2="10.66"/><line class="cls-2" x1="370.66" y1="-390.66" x2="-30.66" y2="10.66"/><line class="cls-2" x1="350.66" y1="-390.66" x2="-50.66" y2="10.66"/><line class="cls-2" x1="330.66" y1="-390.66" x2="-70.66" y2="10.66"/><line class="cls-2" x1="310.66" y1="-390.66" x2="-90.66" y2="10.66"/><line class="cls-2" x1="290.66" y1="-390.66" x2="-110.66" y2="10.66"/><line class="cls-2" x1="270.66" y1="-390.66" x2="-130.66" y2="10.66"/><line class="cls-2" x1="250.66" y1="-390.66" x2="-150.66" y2="10.66"/><line class="cls-2" x1="230.66" y1="-390.66" x2="-170.66" y2="10.66"/><line class="cls-2" x1="210.66" y1="-390.66" x2="-190.66" y2="10.66"/><line class="cls-2" x1="190.66" y1="-390.66" x2="-210.66" y2="10.66"/><line class="cls-2" x1="170.66" y1="-390.66" x2="-230.66" y2="10.66"/><line class="cls-2" x1="150.66" y1="-390.66" x2="-250.66" y2="10.66"/><line class="cls-2" x1="130.66" y1="-390.66" x2="-270.66" y2="10.66"/><line class="cls-2" x1="110.66" y1="-390.66" x2="-290.66" y2="10.66"/><line class="cls-2" x1="90.66" y1="-390.66" x2="-310.66" y2="10.66"/><line class="cls-2" x1="70.66" y1="-390.66" x2="-330.66" y2="10.66"/><line class="cls-2" x1="50.66" y1="-390.66" x2="-350.66" y2="10.66"/><line class="cls-2" x1="30.66" y1="-390.66" x2="-370.66" y2="10.66"/><line class="cls-2" x1="10.66" y1="-390.66" x2="-390.66" y2="10.66"/></pattern></defs><g id="Capa_2" data-name="Capa 2"><g id="diseño"><polygon class="cls-3" points="0 0 0 125.43 1042.21 125.43 887.81 6.5 0 0"/></g></g></svg>